<svg id="Слой_1" data-name="Слой 1" xmlns="http://www.w3.org/2000/svg" viewBox="0 0 1000 1000">
  <title>Garden_58</title>
  <path d="M953.45434,260.01916a1.49323,1.49323,0,0,0-2.00628.60878c-2.51631,5.021-4.85288,10.14062-7.20087,15.24282-9.16656,20.21745-11.5785,42.64392-14.77336,64.392-4.45282,37.98237-6.23859,76.26623-11.451,114.16163-2.07548,13.34688-5.015,26.90829-7.54875,40.232-1.6294,8.38964-2.55707,16.91842-4.48779,25.25008-1.803,7.68808-4.586,15.08046-6.82981,22.63519-3.43818,11.5959-6.86477,23.09324-10.77259,34.579-3.19485,9.28831-6.02407,18.84333-11.15543,27.28524-7.16618,10.63924-18.02565,22.39168-30.555,26.22992a77.96835,77.96835,0,0,1-15.30169,1.76186c5.29081-5.60318,11.307-14.34468,11.82283-16.40748.09277-.43484-.17394-.51022-.45224-.34208a84.3078,84.3078,0,0,1-14.7383,16.66549c-.9755-.05291-1.94838-.12611-2.91537-.23555,8.03886-7.91891,17.9895-22.49314,20.45988-27.23732.12755-.78272-.59728-.39426-.80012.0058-6.912,9.56988-14.55856,18.85349-23.50588,26.6289-.88772-.1801-1.76575-.39788-2.63807-.637q1.26513-1.46081,2.53479-2.91021c8.34905-10.77259,18.35042-21.13353,23.4817-33.97608,3.78026-11.20743,5.51376-22.8903,7.0735-34.61955,1.316-10.07684,1.10741-20.27544,2.89308-30.30009a1.48446,1.48446,0,0,0-2.89308-.661c-2.15684,13.0048-1.80317,26.3111-4.15143,39.3101a.00568.00568,0,0,1,.0058-.00579c-.0058.00579-.0058.01159-.0058.02319v.0058c-.00579.02319-.00579.04058-.01159.06377-4.20922,28.294-8.41862,33.21075-25.96322,54.97046-7.13148,8.39543-14.13531,17.31267-23.11063,23.847-10.84706,7.68011-24.37395,13.63189-37.90691,13.28854,10.00772-6.20525,21.08244-18.06134,25.2383-25.60338-.04629-.49283-.63189-.09857-.78263.17394a111.97641,111.97641,0,0,1-26.41555,23.4585c-.95757.58487-1.96949,1.081-2.98423,1.56943-.02953-.00434-.05906-.00543-.0886-.00978-.96662-.195-1.925-.4189-2.869-.68126,16.00778-7.75331,25.88088-23.69441,36.48542-37.3359.661-.51022.76533-1.29294-.20864-.82331a5.72681,5.72681,0,0,0-.71324.73634c-9.97818,11.09728-18.95341,23.36574-31.25095,32.08006a40.80072,40.80072,0,0,1-6.63856,3.73968,4.78178,4.78178,0,0,1-.989.45133,20.59309,20.59309,0,0,1-2.2699-1.13,56.08641,56.08641,0,0,0,14.95907-11.36362c6.69663-7.56053,12.50029-15.59649,19.13324-23.273,9.30562-11.12627,18.304-22.87871,24.22374-36.25468,0,.0116-.0058.0174-.0058.0232,3.22955-6.95175,5.9545-14.31514,6.67924-22.02642,1.25825-12.76128,1.64671-25.59794,2.77151-38.37663a1.488,1.488,0,0,0-2.96275-.2667q-.8349,11.16685-1.56554,22.3395c-.61458,8.41282-.63777,16.872-2.93956,25.06454-6.65016,22.09019-21.79449,39.76243-36.39373,57.15048-9.9067,13.116-15.37616,19.07054-26.90575,25.28975-.5441.2937-1.11366.58958-1.68765.88564-2.43913,1.25924-5.11461,2.54059-8.17131,3.91017-13.97451,6.43355-29.36924,13.86145-44.20783,10.36239,3.908-2.07621,7.54848-4.79382,11.2117-7.17931,4.87616-3.386,9.9029-6.70243,14.26295-10.72621.43494-.89289-.75373-.62618-1.10161-.23772-6.27927,4.60937-12.92933,8.65054-19.60857,12.63953a89.48005,89.48005,0,0,1-8.44725,4.39992q-1.50458-.55116-2.99827-1.27482c13.53668-5.69,28.2391-21.21706,39.26408-28.74044,1.1537-.86389.116-1.20017-.62618-.57979-13.2889,8.50559-25.05874,19.52749-39.31019,26.47344a16.58487,16.58487,0,0,1-2.65954.99833c-.35258-.22141-.70562-.43593-1.05694-.67365-.54963-.3573-1.05686-.7309-1.568-1.10342a213.36334,213.36334,0,0,0,21.42026-13.97125c13.74685-8.70852,24.72237-20.82624,36.07484-32.32357,9.92609-10.81318,20.0957-21.88735,27.25037-34.83417,4.75432-9.642,7.39229-20.14208,10.16951-30.474,1.32193-5.18916,2.52211-10.39572,3.9716-15.5501a1.48382,1.48382,0,0,0-2.89309-.661c-1.25245,4.57459-2.37725,9.184-3.52515,13.78173q-1.722,6.87927-3.71649,13.67157c-2.31338,7.74026-4.88776,15.49792-9.18395,22.38588a237.63052,237.63052,0,0,1-26.96636,32.43962c-6.99224,7.0735-13.86281,14.33253-21.45232,20.77406-10.32615,7.84462-20.92489,15.5385-32.19022,21.98q-.87051.431-1.75189.86064c-.89442.43376-1.79383.86752-2.70719,1.30127-3.1058,1.47377-6.294,2.90913-9.54578,4.247-.80383.33194-1.61455.65408-2.429.97442-15.72793,6.15851-32.77236,9.69417-48.83957,3.78353-.53187-.19822-1.07063-.42253-1.61047-.659-.17847-.07809-.35748-.16288-.53631-.245q-.56721-.26037-1.134-.54537a27.4642,27.4642,0,0,1-6.251-4.24446l.00589.00018a18.6438,18.6438,0,0,1-1.37855-1.41941,12.73106,12.73106,0,0,1-3.4285-7.67178h.00055c-.01024-.15582-.00082-.31671-.00426-.47434-.00525-.33429-.0029-.67039.02292-1.01319.01187-.16126.03234-.32469.05173-.48794a11.98072,11.98072,0,0,1,.2253-1.36415,12.46062,12.46062,0,0,1,1.77825-4.68873c.05617-.08189.1088-.17158.16706-.24931a6.68152,6.68152,0,0,1,.49971-.58849c.06269-.066.13054-.12321.19532-.18553.11206-.10817.22448-.216.34253-.31472.12148-.10074.2484-.194.37677-.28537,1.81331-1.31143,4.27835-1.76222,7.5579-2.60509,2.63055-.70155,5.29036-1.33933,7.95017-1.988.7415-.18065,1.48274-.36056,2.22342-.545q2.01891-.5028,4.02559-1.0478c.1734-.04711.3486-.08806.52182-.13571l-.041.00036a79.62437,79.62437,0,0,0,10.71162-3.68731c.02464.00054.04829-.00109.07293-.00054.51031-.22033,1.00884-.45224,1.51335-.69l.03561-.01739a135.2749,135.2749,0,0,0,22.09653-12.65947l.00435.02573c.29315-.21615.57562-.4488.86616-.66894.46283-.35041.9235-.70354,1.37864-1.06464.14114-.1127.2879-.21634.42814-.33049l-.00335-.01866c.69829-.56258,1.40084-1.11937,2.07893-1.70913,6.13423-5.25874,11.08577-11.69446,16.559-17.60257,5.29353-5.6704,11.01022-10.92343,16.36173-16.54164,11.12626-11.3234,22.68167-23.94554,24.05569-40.53347,1.95391-16.06032.16234-32.2424.58568-48.3549.06251-1.83152.16452-3.66458.25439-5.49728a278.42433,278.42433,0,0,1,7.7177-36.76978c.60417-2.84253,3.20192-10.55191,4.78911-17.929l.0058-.00408c.04865-.22956.09-.45459.13679-.68316q.119-.57549.22957-1.14591c.04611-.24061.08932-.47851.13272-.71713.067-.36962.12972-.73535.18924-1.09935.0338-.204.07465-.414.10609-.61594l-.00969.00707c1.33361-8.7473.20338-15.41449-9.157-10.04332-10.46539,6.01247-19.71312,13.41645-29.47107,20.57692l.02908-.029c-19.14492,13.93248-39.47833,26.50823-61.60322,35.153a.1267.1267,0,0,0,.029-.01739,90.4382,90.4382,0,0,1-31.08861,6.47631c-9.71428-.41066-20.68925-2.82161-23.16253-9.74219-.02546-.11623-.06414-.2224-.08715-.34045-.429-11.07988,8.33174-19.98553,16.69809-26.085,8.85347-6.77781,18.27514-12.81927,26.30521-20.61751,5.03552-4.816,9.81285-9.86349,14.44677-15.04061a51.40742,51.40742,0,0,0,5.09776.78608,121.44313,121.44313,0,0,1-9.027,11.05406c-6.5342,7.0793-13.51511,13.70055-20.69868,20.12468-1.81485,1.81476-4.02948,3.4034-5.48486,5.49646a.66764.66764,0,0,0,.04629.5566c.24361.19133.62627.0116.84071-.17973a81.87766,81.87766,0,0,1,7.21853-6.372c10.9372-9.23151,21.77783-18.867,30.28387-30.46161.5307.01911,1.06139.03868,1.59326.03977h.03488a46.806,46.806,0,0,0,5.45959-.33085A209.2261,209.2261,0,0,1,630.346,438.654c-.342.5508-4.244,3.35121-3.1366,3.57733A172.46008,172.46008,0,0,0,649.10246,420.518c1.76-2.184,3.55451-4.46315,5.31745-6.717a55.234,55.234,0,0,0,6.81712-1.72788c-4.01119,5.28973-8.13525,10.52808-11.85047,15.81409.53332.27251.94507-.41745,1.29874-.73634A206.06834,206.06834,0,0,0,665.04157,410.723c13.91834-5.41456,26.39544-15.27316,39.79658-21.65308.06949-.029.12176-.058.20873-.09857l.0058-.00579c9.587-4.46479,20.42355-5.15846,30.77878-3.44951.96889.16134,1.93325.33383,2.88991.53314a4.66051,4.66051,0,0,1,1.29874.31888c-1.206-1.42049-2.41194-2.85259-3.60061-4.30207-7.93187-10.57193-14.47939-20.0947-23.80548-27.69708a6.1687,6.1687,0,0,1,1.22817-.939,15.29413,15.29413,0,0,0,2.77142-2.354.64558.64558,0,0,0-.00571-.5566c-.08706-.14495-.36536-.12755-.49282-.10436-1.09.48123-2.099,1.21177-3.15989,1.78a16.601,16.601,0,0,1-1.77861,1.04843q-1.41081-1.08657-2.91066-2.11716a80.76288,80.76288,0,0,1,6.77663-5.70328,25.003,25.003,0,0,0,3.07291-2.325c.60869-1.148-.661-1.061-1.27555-.545a100.68772,100.68772,0,0,0-10.62945,7.23122c-1.31215-.82639-2.67105-1.62651-4.10151-2.38785.08978-.08416.17385-.17457.265-.25719,9.874-8.96943,21.10463-16.40241,32.17872-23.789,1.17118-.8639.25511-1.4147-.64358-.68416-2.398.98148-24.55513,15.04713-34.10127,23.57419-.5008-.2427-.98221-.49527-1.49823-.73027a.74428.74428,0,0,1,.116.06378c-.82412-.38049-1.67044-.71034-2.50843-1.0594a177.59192,177.59192,0,0,1,38.241-28.17966c14.81966-8.54618,31.077-14.51807,45.75163-23.41212,15.13274-8.74331,30.103-19.04047,40.09291-33.6687a1.48282,1.48282,0,1,0-2.40615-1.73359c-5.69947,8.42442-13.32948,15.41675-21.4641,21.44662-15.121,11.07408-32.06257,19.42893-49.097,27.23877-17.8113,8.80129-35.1007,19.09845-49.60146,32.8106-1.54986,1.40627-3.0422,2.86174-4.54777,4.30579-21.85781-7.97535-47.5508-5.56966-66.47123,8.4323-11.10878,7.833-20.35071,19.22021-22.82653,32.857a28.36944,28.36944,0,0,0-.57155,6.20344l-.00815.01776c.00109.03632.006.07274.00734.10907.004.093.01331.18526.01866.27812a15.92575,15.92575,0,0,0,.21751,1.94358c-.09349.05119-.188.10654-.28219.15872-.13435.07429-.26743.151-.40151.22585-.08135.04647-.16316.09-.244.13725l.00127.00271c-16.346,9.1768-30.471,22.43-41.793,37.30709-.59783.83862-1.22944,1.67607-1.86821,2.51532.60018-3.71015,1.2577-7.41177,1.86821-11.11947,3.53-21.30937,7.88394-42.63668,8.95149-64.2373.3804-.77937.62119-1.75723.9746-2.39274a195.05066,195.05066,0,0,1,10.42471-20.50155c10.37272-16.92259,22.64806-33.13094,38.20541-45.21088.01024.00716.02374.014.03406.02111a9.52083,9.52083,0,0,0,.94815.5865c.05055.02836.08806.05843.14006.08661l.01014-.00408c4.6178,2.44483,13.69105,3.56538,16.06748,3.43646.68987.02319,1.37412.029,2.05818.029,18.97678,0,37.39678-7.3576,52.98747-17.88667,11.996-8.10554,22.78023-18.17658,36.36474-23.673a63.16664,63.16664,0,0,1,15.44809-4.331c.21108-.02537.42153-.05517.63289-.077.71867-.07529,1.43816-.13508,2.15837-.16651l.00118-.00009c-.24134-.24551-.48041-.48413-.71713-.71832l-.13716-.13489q-.30345-.29881-.59393-.58034l-.07274-.07039c-1.049-1.01428-1.94485-1.84529-2.38106-2.30532a101.56221,101.56221,0,0,0-20.12468-14.9761c-23.4759-13.24252-54.36158-11.71186-76.86352,2.93376-16.29921,10.09541-32.57161,27.802-29.88254,47.25556a151.45857,151.45857,0,0,0-28.701,29.90709c.12058-4.48444.32632-8.96671.52281-13.449.35948-13.65417,1.73948-27.26776,1.032-40.92773-.70164-8.581-2.24381-17.13874-3.357-25.67912-.42017-3.35737-.7156-6.7306-.94018-10.11035,9.28931-5.09758,10.73029-23.72014,6.84258-32.62054-2.50671-6.27872-7.42817-10.56567-12.79236-14.34231-.43974-1.164-1.58529-2.42454-1.87075-3.4516a47.59126,47.59126,0,0,1-3.93681-10.29715c-1.72778-7.288-2.65546-15.02829-5.8966-21.92785-4.32319-10.23556-12.27073-19.07752-15.139-29.86316l.00072-.00208c-.19269-.71415-.35177-1.43844-.49509-2.16871-.01993-.10209-.04828-.20075-.06722-.30321q-.22842-1.22871-.35956-2.49692v.00036l-.00009-.00036c-.01151.10907-.01178.14938-.0173.16714a1.648,1.648,0,0,0-.16235-.87449v.00018l-.00009-.00018a17.84762,17.84762,0,0,1-1.02044,2.899c-.08443.20818-.15817.42126-.24052.63017-.23518.60063-.47054,1.20108-.69041,1.809-.01921.05327-.0414.1049-.06043.15826l.003.0097c-3.88145,10.81453-5.27033,22.71383-2.37806,33.86338-.21525,8.00923-.44472,16.03142,1.52549,23.90059l-.0029.0029c.0058.029.01758.058.02338.087.31291,1.2057.621,2.421.92957,3.63559q.12095.47751.24152.95575v.00064l.00046.00118c3.37223,13.365,6.64644,27.04943,13.42759,39.135,3.20337,4.60194,6.45747,10.90839,12.31168,12.1901,2.16934,17.71083,5.35712,35.35436,5.76053,53.22237.19134,10.36674-.76532,20.44357-1.53654,30.85089-.41238,6.042-.54,12.13276-.70255,18.20194-.40622.64049-.81633,1.27908-1.21639,1.92275-2.40054,3.91823-4.84519,7.82053-7.07051,11.842a133.00035,133.00035,0,0,0-12.29474-44.93094c-5.50216-10.77839-12.25686-21.2147-17.82869-32.01048-.3101-.63461-.60235-1.273-.9-1.91025,4.745-7.03119,3.22049-16.9975.87694-24.69075-5.12557-15.49212-17.74191-28.42735-33.408-33.27443-17.10386-4.84709-34.32966-1.95971-51.60167.92767-13.05707,2.18583-26.143,4.36585-39.22322,3.21206a43.25536,43.25536,0,0,1-8.1183-1.22373c-1.12481-.27612-2.244-.57381-3.35566-.92731.48277.9949.94914,1.99613,1.41425,2.99926,3.92793,8.50632,7.347,17.34167,12.37165,25.23087,2.76824,7.27516,7.63907,13.73063,12.83249,19.55658a62.25954,62.25954,0,0,0,45.4908,19.74781c.84071.05219,1.67561.07538,2.51052.07538,13.85121,0,26.60081-6.34876,39.83762-9.73476a67.73255,67.73255,0,0,1,10.61242-1.31124c2.52275,5.609,5.24869,11.13514,8.02219,16.61783,11.12056,20.66389,22.33379,42.39461,23.302,66.32854.5566,18.107-1.4089,36.16762-4.54559,54.0195-1.84366,11.97159-4.85959,23.6974-7.64994,35.47041a103.17568,103.17568,0,0,0-26.9862-55.2512l.00507-.0366c-.04647-.04638-.09276-.09277-.13344-.13915.09277-.38846.17974-.78272.25511-1.18278.0405-.26091.10436-.5798.13906-.91608a1.10633,1.10633,0,0,0-.13906-.2899c-.02319-.52761-.05807-1.061-.10436-1.58863-.00707-.01314-.01839-.02383-.02582-.03669-1.26776-15.18429-10.07946-29.76124-22.09345-38.92554-14.63385-10.80738-35.61681-11.42776-51.66553-3.3802-11.24793,5.50805-21.261,13.17294-31.6973,20.03191-5.07095,3.372-10.32815,6.47541-15.69188,9.38535-2.9932-3.1973-5.87324-6.48882-8.61893-9.93615-17.991-22.86132-31.68-49.17821-38.82887-77.46061-3.57145-14.40791-5.70509-29.33763-8.26788-44.01224-3.24105-22.15976-8.54038-44.28474-20.42037-63.52814-9.79854-16.76767-22.78024-31.44228-32.39315-48.30851-8.62735-18.28094-14.321-37.98237-19.20852-57.56205a338.51429,338.51429,0,0,1-5.93139-37.56492c-.02908-1.22337.05218-2.71924-1.55385-2.80041a1.49474,1.49474,0,0,0-1.46688,1.50167c.07537,3.28744.61458,6.55748.99724,9.82173,1.36261,10.38413,3.00905,20.74506,5.36311,30.96685,4.92826,19.39414,10.58126,38.89844,19.17953,57.017,9.34058,16.48357,21.98,30.84509,31.67429,47.13733a142.10852,142.10852,0,0,1,13.5903,29.67971c3.78035,12.13511,5.6241,24.763,7.76355,37.26342,3.25844,18.652,5.80954,37.56492,12.09443,55.50957a207.27921,207.27921,0,0,0,43.37328,73.685c-3.33382,1.75252-6.69373,3.45413-10.09876,5.05119a115.02825,115.02825,0,0,1-20.39148,6.85318c-1.345.487-3.55985.35947-3.90193,2.11045.15465,2.28141,3.50151,3.89215,7.303,4.93007.20755.14876.41673.29443.62618.44065l-.00924.004c.69576.487,1.39722.95666,2.11625,1.4147l-.00027-.00172a51.78349,51.78349,0,0,0,5.53958,3.07391,89.96038,89.96038,0,0,0-13.27884,1.1142c.02908-.01322.05716-.02772.08633-.04085-.652.10119-1.30925.22177-1.96559.33863-.21027.03751-.41863.06949-.62944.10844-1.0912.20221-2.18792.42072-3.29505.666q-5.15782-7.18652-10.3151-14.373-5.38353-7.50545-10.76679-15.01089-5.44455-7.60111-10.906-15.19642-5.47023-7.62721-10.94653-15.25441-4.52089-6.29521-9.0467-12.59994l.0019.001q-.449-.6255-.90058-1.25371c-.4498-.92179-.88908-1.84683-1.28253-2.78528-3.40167-7.82361-7.31284-15.40226-11.1846-23.00047-.09395-.37252-.79188-1.43427-.99716-.64357,2.92769,6.98671,5.3025,14.52069,8.38229,21.63949-.0625-.02274-.1242-.048-.18671-.07058-.46021-.16578-.92885-.3081-1.39413-.45975-.34743-.11279-.69023-.23845-1.04064-.34308l.00244.00344c-.06912-.02083-.13634-.04665-.20555-.06722a1.31718,1.31718,0,0,0-.16235-.04638,45.72479,45.72479,0,0,0-6.96333-1.48428,47.7345,47.7345,0,0,0-35.12969,9.155,47.77692,47.77692,0,0,0-16.00814,21.34225,48.1492,48.1492,0,0,0-3.044,18.02c0,.10436.0058.20872.0116.31309q.37492.51285.7512,1.027,2.4774,3.3914,4.95987,6.78279.25438.34786.50895.69584l.00118.01151c.19106.2561.37968.51221.56911.76832q5.06541,6.92288,10.1282,13.84831,2.83845,3.89961,5.69422,7.78492l-.00063.00172q.76532,1.04364,1.53065,2.09306l.00064-.002q2.128,2.90422,4.25116,5.81208l.00381.00526c.176.23853.34661.477.52245.7155-.15184.13245-.296.27486-.45007.40459-.10708.091-.21334.182-.32133.27142a70.48638,70.48638,0,0,1-6.21586,4.42383,121.1513,121.1513,0,0,1-42.87574,14.634c.05218-.0058.05218-.0058.058-.0058.029,0,.0521-.0058.07547-.0058-.72484.09857-1.44958.20293-2.17432.30729-.0116,0-.0232.0058-.03479.0058-.0173,0-.0289.0058-.04648.0058a43.61538,43.61538,0,0,1-46.94292-23.01469c-.40775-.79314-.80038-1.60114-1.16357-2.42844a47.2815,47.2815,0,0,1-2.72993-8.04583c-1.79148-7.54313-3.49028-14.9935-4.01789-22.77435a1.48279,1.48279,0,1,0-2.957.22612,106.27375,106.27375,0,0,0,2.12205,14.47748,61.83711,61.83711,0,0,0,5.04023,17.43725,28.652,28.652,0,0,1-3.21071,1.26975c-4.17842-7.01507-6.5217-15.14588-8.48557-22.86413-.74214.20873-.19713,1.50167-.20873,2.12205,1.21857,7.12351,2.81591,14.88687,6.27764,21.42578q-1.28823.30318-2.59947.4902a68.51042,68.51042,0,0,1-6.10751-13.71768c-.19133-.46383-.545-2.71923-1.25226-1.62922.09276,2.67286,1.1537,5.35151,1.78577,7.96638a54.20724,54.20724,0,0,0,2.83266,7.65167,32.13552,32.13552,0,0,1-14.83451-2.764c-11.477-3.90366-19.2578-12.6553-24.026-23.10737-.18028-.39535-.34253-.80093-.51466-1.20154a69.2777,69.2777,0,0,1-4.99992-19.11194c-.96237-10.96392.98-21.96264,3.11359-32.712a1.48548,1.48548,0,0,0-2.87578-.74214c-2.19163,11.0103-4.18621,22.23514-3.20636,33.49475a77.48845,77.48845,0,0,0,4.03873,17.22091c-.86426-.13118-1.71909-.29153-2.56007-.49337a16.25635,16.25635,0,0,1-.76542-1.64127,67.46379,67.46379,0,0,1-4.23839-37.217c.15084-1.07262-.68987-.92187-.8696-.09857-2.89563,10.31845-2.68554,26.61866,2.16861,37.81876q-1.40115-.52467-2.749-1.17626c-3.94369-8.29967-5.74405-17.63292-6.19158-26.82077.0174-.34788.0289-1.20017-.47543-1.119a70.84555,70.84555,0,0,0,2.486,25.56588,43.9422,43.9422,0,0,1-9.45519-8.52571A56.19789,56.19789,0,0,1,75.0421,328.67694q-.41325-1.31472-.77-2.64486a87.399,87.399,0,0,1-2.82515-18.50452,75.17756,75.17756,0,0,1,.49274-9.74055c-.17394-1.76258,1.70469-5.86753-.77683-6.343a1.49675,1.49675,0,0,0-1.664,1.28714c-.39426,3.53675-.806,7.09669-.97994,10.645a84.9743,84.9743,0,0,0,2.23765,21.0298c-.83409-.35331-1.63629-.75192-2.42318-1.17218a25.36692,25.36692,0,0,1-1.55376-3.56538c-2.44665-6.26179-3.21787-13.10917-3.3976-19.83479.04067-.2899-.04059-1.235-.487-1.003a.75121.75121,0,0,0-.24931.46383c0,1.88434-.06949,3.78027-.06369,5.6704a51.63474,51.63474,0,0,0,2.20277,16.05443,32.127,32.127,0,0,1-3.06558-2.55064,50.1914,50.1914,0,0,1-3.14955-11.89776c-.0405-.38266-.17974-1.003-.64937-1.00884-.35368.2667-.30141.75953-.26091,1.15379a67.30291,67.30291,0,0,0,.95041,8.48177c-6.41588-7.792-9.72162-18.41529-9.885-28.4673-.13335-26.52563,9.16076-52.06559,17.60837-76.88662,16.71549-46.55754,37.21125-91.82213,49.30006-139.95091,5.72249-20.44357,10.88846-41.04369,14.38472-61.99748.36527-1.9713.74213-3.90782,1.17689-6.04146a1.4822,1.4822,0,1,0-2.87-.74214c-.44635,2.13944-.79432,4.00058-1.21177,6.17481-1.235,6.53429-2.38866,13.40486-3.79177,20.04931-5.311,24.03251-12.03654,47.74032-19.081,71.309C91.8499,139.1319,73.90534,177.6129,60.45409,217.72891c-8.05924,24.82682-20.119,59.45218-11.97276,84.98635a41.58888,41.58888,0,0,0,11.81558,18.465l.00055.00145q.833.74494,1.71057,1.43391c.07266.057.14984.10771.22286.16415.49908.38584,1.00332.76452,1.52215,1.12118l-.00064-.00915a34.56285,34.56285,0,0,0,2.96475,1.82482l.01023.02228c.21253.12.43711.21906.65345.33266.36772.19224.73417.386,1.10967.56485.0549.02563.10672.057.1618.08235l.00707-.00734c.98493.46257,1.999.87105,3.035,1.23668a60.30167,60.30167,0,0,0,13.99807,25.15133,42.22279,42.22279,0,0,0,13.818,10.13445c.17512.07746.35123.15129.52761.22576.69621.294,1.39976.5691,2.11408.81606.03742.01287.07338.03.11089.04276l-.00172-.0029q1.04688.35779,2.1177.64584l.00036.00063c.0848.02292.17222.03932.25728.06152.47852.12366.958.244,1.44333.34525.48757.102.98.18553,1.4735.26371.78852.12493,1.58438.22123,2.38866.28383a51.12809,51.12809,0,0,0,11.36136,16.973c7.98957,6.8068,18.30421,11.54372,28.87388,11.9032.23762.00579.46963.01159.70726.01159a28.791,28.791,0,0,0,2.98974-.175l.01368.01848c.14812-.01559.29543-.05028.44355-.06822q.9769-.11727,1.94467-.29923c.083-.01621.167-.02138.24985-.03841l-.0029-.00589c.81588-.15944,1.627-.34307,2.42907-.56747l.00308.00516c.02655-.00743.05218-.01812.07873-.02564.77484-.219,1.54026-.471,2.29744-.74775.0269-.01.05517-.01667.08207-.02673l-.003-.00444c.983-.36219,1.94576-.77728,2.89019-1.23152C172.0476,406.30352,185.927,416.42,204.446,416.76094a121.63825,121.63825,0,0,0,54.779-15.47473,82.72144,82.72144,0,0,0,8.22013-5.70464q2.36094,3.23376,4.72832,6.46562l-.00154.00435q.87838,1.20887,1.76838,2.41195l.00009-.00019q1.13793,1.55349,2.27279,3.10789,5.505,7.51414,10.99862,15.04568,1.91088,2.60528,3.814,5.21054-.81982.91617-1.59915,1.82817c-32.88652,39.951-26.585,87.05141-7.08908,130.01812-2.93123,3.78153-5.86037,7.47473-10.61777,8.37767-.16144.03071-.3197.06623-.4854.09042a12.225,12.225,0,0,1-1.81068.137,18.23536,18.23536,0,0,0-2.14379.38566c-.12647.02971-.25692.05571-.38094.08778-.05191.0135-.10835.02283-.15981.03678-.00127.00571.00109.00888-.00009.01459-5.80773,1.56581-8.86226,5.66369-11.58032,9.40155-.37877.51792-.753,1.03131-1.12344,1.52713-1.99776,2.67041-4.006,4.90978-7.044,5.49392-1.85534.14495-3.69909-.88709-5.51376-1.31613a10.09257,10.09257,0,0,0-10.7089,2.91636,11.616,11.616,0,0,0-2.80213,4.51153l-.00408-.00072c-.02672.07229-.04847.15075-.07447.22394q-.15939.443-.30022.90313c-.02573.08452-.05046.16922-.07528.25465q-.13317.45795-.24714.92912c-.01948.07918-.04358.15483-.06233.23446l.00507.00081a23.02339,23.02339,0,0,0-.57635,4.56082c-.54183.03442-1.08449.06522-1.62623.1-3.98338.25221-7.97182.50551-11.94767.85194l.00389-.02283c-.77683.06378-1.55376.13915-2.33078.21452l-.71314.06958q-.27831,1.522-.54492,3.04392l.013-.00145a289.18708,289.18708,0,0,0-2.57583,76.5112,213.35748,213.35748,0,0,0,3.58014,22.71238l-.0202-.00761c.2436,1.16539.48712,2.33078.74213,3.49037,1.09582.43484,2.19163.8465,3.29913,1.24076l-.00779-.0357c2.69532.97442,5.40894,1.89394,8.14811,2.726,3.29777,1.00558,6.62008,1.911,9.951,2.77649,9.82834,42.23589,17.89311,84.87546,28.19942,127.01641,8.89994,36.7648,15.45163,74.81095,32.54978,108.8913,11.25373,23.02366,30.56679,35.97628,54.94128,42.24966,29.54645,7.804,60.29868,9.155,90.73792,9.729,16.91271-.10436,33.80214-1.43209,50.66837-2.5395,23.302-1.82056,42.04094-7.14887,58.29839-24.908,18.35631-19.66085,29.813-44.57464,38.77089-69.65657,6.38354-17.45763,12.81338-34.93265,17.88668-52.83672.2715-.92459.53332-1.85172.80365-2.77668l.00815-.00054c.13906-.46384.2725-.92767.40577-1.39731l-.00952.00073q1.79715-6.165,3.56257-12.33876h.001c.20891-.71315.41174-1.4263.60887-2.14525l-.00924.00109q1.26555-4.46994,2.50635-8.9466l.01341-.00072c.19713-.69576.38846-1.39731.57979-2.09306l-.00688.00054q1.62021-5.86853,3.1847-11.75154l.02265-.00145c.19713-.74793.40006-1.49587.59719-2.2438l-.01459.00072q1.70038-6.38353,3.33582-12.78375l.0241-.00145q.3828-1.48718.75953-2.986l-.01269.00091q1.6834-6.617,3.29125-13.25285l.02056-.00217c.24351-.99145.48694-1.9887.72474-2.98015l-.01377.00182q1.69523-7.03583,3.30013-14.09337l.02418-.00326q.36541-1.61763.73064-3.23526l-.00462.00055c.82122-3.6442,1.60422-7.29727,2.38929-10.95l.02718-.0029q.36541-1.6959.72484-3.3918l-.01613.00163c.88727-4.19373,1.73622-8.39633,2.57221-12.602l.0298-.00435c.226-1.148.45224-2.29019.67836-3.43818l-.01676.00217c.152-.77874.3188-1.55385.46891-2.33295q1.04649-5.19886,2.11489-10.39319c3.59156-1.015,7.1621-2.10465,10.67548-3.36534,1.27029-.45333,2.55173-.93474,3.83453-1.4417l-.00218.0096c1.12073-.44843,2.24137-.91462,3.35647-1.40818l.02963-.01232c.06486-.26453.12329-.53015.18707-.79468A234.23755,234.23755,0,0,0,661.51,677.54122c.26109-2.2333.46964-4.47312.65218-6.71511q.91943-.34516,1.83514-.69467a93.25518,93.25518,0,0,0,10.4008-4.61517q1.06919.79794,2.18393,1.53229l-.00888.00417c.06686.04421.13806.08062.2051.12465q1.34775.88437,2.75194,1.67307c.03552.01993.06876.04349.10428.06342l.00688-.00254q1.58433.88166,3.23381,1.62633l-.00562.00543c.06188.02827.1271.0482.18907.0761.90674.40368,1.82508.778,2.75747,1.11339.05254.019.10282.04385.15545.06287l.0126-.00544a35.37587,35.37587,0,0,0,11.83841,2.1043c.17394,0,.342,0,.51013-.0058,12.29754.05218,23.4875-5.6646,34.53259-10.39572,3.72174-1.75932,7.50327-3.49146,11.187-5.3863.46148.30838.93011.59683,1.39431.86752l-.00543.00217c.13915.08081.27.15075.406.22721.14586.08226.28954.16452.43032.241.13272.07211.25285.13371.37949.2.16842.08842.33656.17792.4912.25529.09983.05.18082.08715.27359.13208.15129.0732.30783.15057.43729.20945.20909.09513.38874.17177.52753.225a1.04533,1.04533,0,0,0,.12166.04638l.00507-.00181c1.00921.40513,2.03952.75554,3.08479,1.05975l-.00526.00308c.82621.24533,1.6641.443,2.507.6193.26272.05526.52616.10309.79024.15219.2504.046.49808.104.74966.14459.01558-.0067.03189-.01594.04747-.02247a35.125,35.125,0,0,0,5.03742.48051c14.321-.058,28.45054-5.86753,39.93637-14.30934,5.93221-4.27019,10.86726-9.66772,15.6609-15.16853q.87879.27559,1.89692.50406l-.00172.00145c.03416.00761.0723.01305.10663.02066.54655.11994,1.11366.2292,1.69373.32976.0963.01667.18925.03442.28618.05037.61794.10327,1.24294.19531,1.86939.27812.02464.00326.049.00779.07356.01105l.00154-.00145c.84161.11034,1.67343.204,2.47391.2812l-.00543.00435c.63242.05943,1.23722.10853,1.80959.15,1.58357.11741,2.88448.16887,3.55931.16887h1.17707c7.04451,0,14.263-.64358,20.80875-3.386,11.2887-5.69938,20.55383-15.20222,27.51716-25.66172,8.41845-14.47757,12.24527-31.0829,17.64317-46.81274,3.61792-13.27151,8.459-26.18934,11.80444-39.542,1.84955-8.34325,2.83538-16.84884,4.46442-25.24427,2.82378-15.0051,6.15181-29.6971,8.19848-44.88193,2.22062-17.8229,3.71649-35.73277,5.4441-53.61365,2.696-29.59273,4.569-59.13909,10.54647-88.34336,2.57447-16.17048,8.96381-31.25095,16.37359-45.75162A1.50835,1.50835,0,0,0,953.45434,260.01916ZM630.31719,415.20709c-7.00981,7.45036-14.124,14.88333-22.44966,20.9074-.93637.72964-1.89,1.44224-2.849,2.15005q-.96915.71586-1.95073,1.42022c-.39472.28483-.78735.57155-1.18351.85511q-1.48092,1.06049-2.96538,2.11988-.58827.42-1.17372.84305-1.01592.73-2.02294,1.47051-.64889.47547-1.29213.95711c-.60924.45523-1.21132.91853-1.81177,1.38354-.42642.33021-.85248.66078-1.27347.99707-.59972.47914-1.18685.97224-1.77326,1.466-.39354.33139-.7907.6587-1.17717.9977-.63071.55316-1.24067,1.12852-1.84981,1.70487-.31545.29841-.64059.58641-.94951.8918-.904.89361-1.78368,1.81349-2.62421,2.775-.09838.12285-.1858.24279-.2821.36509-4.37175,5.54954-6.6324,10.54158-7.1968,14.92112l-.003.01866c-.042.32831-.06794.65073-.091.97206-.00571.07863-.01749.15953-.022.23772-.01431.24659-.01377.48748-.01712.73-.00217.14912-.01187.301-.00987.44853.00235.1782.01757.35159.02581.52752.0097.20637.0135.415.03117.61821.01214.13915.03515.274.051.41174.02682.23373.0501.46891.08751.69839.02.12239.04983.24061.07284.36182.04448.23473.08552.47082.141.70092a.008.008,0,0,0,0,.0116,10.71418,10.71418,0,0,0,.5692,1.2144c.01576.0288.03732.05607.05336.08479a11.13479,11.13479,0,0,0,.67646,1.07389c.03315.0462.07609.0896.11016.13553,1.64091,2.21481,4.27789,4.15133,8.18054,5.6665l.00227.00072c.31807.12149.64221.23147.96037.34136-.03352-.01858-.06359-.04041-.09693-.05916a53.17212,53.17212,0,0,0,28.03137,1.49705c30.02749-5.64721,58.87809-24.50794,83.4209-42.1337,7.9315-5.83854,15.74143-12.01336,24.20064-17.17353a55.86178,55.86178,0,0,1,5.879-3.31063c.65517-.23772,1.44378-.49863,2.02358.01739,1.283,3.51746.52526,7.4944-.41628,11.34l-.00108.00081c-.19713.80719-.40015,1.60522-.59683,2.39428-.15727.63171-.30956,1.25707-.44653,1.87156-.00906.0405-.02048.08281-.02936.12321l.00408-.0029c-.0645.29289-.12719.5846-.18381.87259-1.88859,7.00864-3.8,14.03285-5.56395,21.09258.00362-.023.00589-.0462.00951-.06921-.0944.37714-.17973.75663-.27323,1.134q-.60063,2.42781-1.17145,4.86222-.28688,1.22246-.564,2.44664-.51963,2.28946-1.00014,4.58654c-.17322.821-.3486,1.64155-.5143,2.46413-.32985,1.63765-.63424,3.27992-.93057,4.92382-.12611.69929-.26245,1.39649-.38194,2.09695-.39906,2.34129-.76805,4.68792-1.08413,7.04361q-.24338,5.13119-.31879,10.26817c.04049,6.12263.15654,11.57271.25511,16.48357l.00009-.00009c.70472,35.20406.5884,42.852-32.62516,74.79364-7.74017,7.22434-14.21068,15.65456-21.69013,23.12232-1.01908.96028-2.07285,1.87853-3.14538,2.77287-.82005-4.61336-1.69346-9.2182-2.59051-13.81833l.00163.00036c-.11614-.60443-.23391-1.20488-.35168-1.80642q-.12339-.63324-.24542-1.26649c-1.02044-.12756-2.04088-.25511-3.06132-.37107l.00354.01812c-2.2911-.27432-4.58265-.5499-6.87411-.80664-4.84128-.53341-9.68828-.98565-14.54125-1.4263-.43259-.03968-.86625-.07265-1.299-.11143a22.49943,22.49943,0,0,0-.01268-4.39348l.01295-.00018c-.0067-.06523-.02518-.125-.03261-.19a17.04323,17.04323,0,0,0-.3602-2.09768l-.00145-.00833h-.001a11.58368,11.58368,0,0,0-3.74856-6.287l.00417-.00961a10.26668,10.26668,0,0,0-2.12785-1.38571l-.0058-.00579c-.016-.00372-.03225-.00589-.04828-.00961a14.81411,14.81411,0,0,0-5.40759-1.40509,27.46658,27.46658,0,0,0-4.46143-6.13324l.00281-.001c-.009-.009-.01894-.0164-.0279-.02537-.26327-.26082-.53985-.50306-.8177-.74458-.13063-.11406-.2561-.23536-.39009-.34453-.23817-.19351-.48965-.36545-.73833-.54265-.15718-.11206-.30548-.23835-.46692-.34317l-.01866-.00326a12.144,12.144,0,0,0-1.4831-.83164c-2.93947-1.206-6.2154-1.04363-9.20134-2.02928v-.029a35.80648,35.80648,0,0,0-6.90138-5.12095l.00191-.00444c-.0289-.01667-.05907-.03062-.088-.0472-.33474-.19016-.67673-.36672-1.01736-.54619-.30086-.15871-.60054-.32033-.90575-.4699-.36527-.17947-.73661-.34543-1.108-.51258-.17312-.07745-.34181-.16424-.51629-.23889l-.03832-.0067a36.37859,36.37859,0,0,0-4.94212-1.73269,7.04535,7.04535,0,0,1-2.06987-1.15959c-1.94231-2.02348-2.88737-5.02682-4.8007-7.19525-1.39151-1.91912-3.84413-2.53371-5.31092-4.33687-3.3629-4.53979-6.227-10.95812-12.45409-11.97856a17.52225,17.52225,0,0,1-3.79466-1.12843q-5.62121-7.03009-11.164-14.17236-1.82391-2.34939-3.66494-4.6919a290.06717,290.06717,0,0,1,7.74688-35.801C556.66,458.70911,570.836,436.22466,589.30829,418.28c6.26967-5.99644,12.95706-12.2209,20.48027-16.8146,1.56762,1.102,3.02381,2.02041,3.73759,2.55164a65.2933,65.2933,0,0,0,18.987,8.76777C631.78145,413.592,631.05689,414.40643,630.31719,415.20709ZM551.14374,535.80354c-.4083-.14866-.8195-.28972-1.23849-.41075-2.3017-.76533-4.702-.48123-7.0793-.19713-.9168.10944-1.83043.21344-2.73663.26236q.549-6.0191,1.35644-12.01281,1.18251,1.52115,2.36593,3.04193C546.24185,529.60517,548.69574,532.70164,551.14374,535.80354ZM638.12694,348.206c16.34306-7.96457,35.77362-8.40884,52.85919-2.39048.416.1464.82657.3053,1.239.4594a70.22333,70.22333,0,0,1,7.27923,3.18017c.1242.0636.2514.12122.37542.18545a67.502,67.502,0,0,1,7.71236,4.64751c9.4994,6.50729,16.30266,15.85612,22.99856,25.06916a138.41465,138.41465,0,0,0-21.01-10.80548,71.194,71.194,0,0,0-30.60738-4.91086c-1.26169.11813-.939.94941.12166.73054,16.02427-1.009,30.79663,5.35006,44.2698,13.4699a57.77786,57.77786,0,0,0-19.71349-.45278c-.63514.237-.67817.75228.05807.74214a50.31311,50.31311,0,0,1,24.94161,3.01547c.32106.20755.63967.41637.9592.62519a54.77373,54.77373,0,0,0-23.427,3.501c-9.25933,3.73388-17.52721,9.60141-26.11968,14.65142A105.6155,105.6155,0,0,1,667.925,406.299c-.89161.39227-1.78432.75926-2.67847,1.11149a64.59559,64.59559,0,0,1-7.97155,2.60907c-.74032.187-1.48409.33447-2.22741.48975a48.52745,48.52745,0,0,1-10.38222,1.04879c-.4565-.00471-.912.00109-1.37131-.01676a44.765,44.765,0,0,1-5.91889-.64629c-.57436-.09983-1.1508-.21715-1.72815-.34271a48.64937,48.64937,0,0,1-9.7132-3.18407,68.35658,68.35658,0,0,1-12.69751-7.11409c-.1964-.14467-.40232-.28872-.60652-.43276l.00363-.00208c-.07574-.05318-.15628-.10826-.23292-.16153-.408-.285-.82521-.57372-1.24429-.867-.38067-.26689-.76089-.53976-1.13314-.824a12.07928,12.07928,0,0,1-3.18208-3.31017,7.97527,7.97527,0,0,0,1.23062-1.21794,69.176,69.176,0,0,1,6.32855-5.47036c14.87654-10.8813,31.39789-20.61244,49.95523-23.13962,1.61473-.11451,1.22952-1.17336-.12194-.87549-15.90206,1.36252-30.75459,7.8613-44.04685,16.43139-1.76982,1.21911-10.14106,6.08241-13.99715,10.06606a51.81332,51.81332,0,0,1,15.88294-19.81241c.53341-.2841.8407-1.03784-.0347-.82331a60.35493,60.35493,0,0,0-15.40678,14.82345C609.38207,368.4979,623.80637,355.26969,638.12694,348.206Zm-20.02023-76.9388c1.94811-13.78172,12.13511-24.78044,23.01777-32.69464,21.73652-17.11554,53.67171-20.47836,78.20855-7.346a114.674,114.674,0,0,1,17.96241,12.58373,63.85487,63.85487,0,0,0-9.57894-3.15626,96.525,96.525,0,0,0-31.72058-2.68953c-.97288-.06885-1.60468.96826-.41745,1.21177,13.40911-.99579,26.7155,1.609,39.13842,6.5034a69.06826,69.06826,0,0,0-17.774,2.74506c-1.401.416-20.56406,4.90579-17.00565,6.69663,10.50362-3.52225,21.58277-7.49394,32.87183-7.546a82.43177,82.43177,0,0,0-9.232,3.65416c-16.414,7.56632-29.04773,21.25528-45.166,29.37241-15.13329,7.94356-40.19982,15.29527-56.559,7.36195l.0057-.00435c-.21651-.09956-.42234-.21769-.6346-.326.19622-.28664.37342-.58641.53821-.848a64.33235,64.33235,0,0,1,5.91409-7.91421c14.588-15.861,32.78107-28.90785,53.72951-34.7761.40867-.22177,3.01874-.4218,2.331-1.07262-.88573-.32106-1.88442.2754-2.7832.42832-19.22446,4.94493-36.44446,15.33848-50.65061,29.10064a75.77433,75.77433,0,0,0-9.51181,10.42634,26.02922,26.02922,0,0,1,.06323-4.25442,27.298,27.298,0,0,1,7.2179-15.37617c.35957-.324.45315-.99942-.21434-.8349a30.37787,30.37787,0,0,0-9.26177,18.93094c-.08606-.42425-.15419-.85212-.22313-1.28035-.05979-.36681-.12185-.73335-.16832-1.10179-.02347-.18536-.0366-.3718-.057-.55742-.04266-.39372-.0876-.78707-.11586-1.18342l-.00481.00363A34.68263,34.68263,0,0,1,618.10671,271.26718ZM570.088,162.67158a48.59827,48.59827,0,0,0,2.47935,6.07127c-.7011-.46356-1.40021-.92686-2.091-1.39232-12.50065-7.73121-20.08219-17.78558-22.6573-29.77148-.04258-.19822-.0992-.39109-.13906-.59039-.22195-1.11013-.39444-2.23937-.531-3.382-.04276-.35893-.06523-.72565-.09966-1.08775-.07673-.807-.13906-1.61917-.17384-2.44175-.01849-.43793-.02664-.87984-.03334-1.32221a57.57757,57.57757,0,0,1,1.64227-14.0545c1.12743,8.89877,3.059,17.71364,3.17727,26.77457.33248.79.72692.016.679-.46383a94.20777,94.20777,0,0,0-.75582-21.47271c-.15356-1.28407-.32025-2.59531-.457-3.91054,3.75915,7.95144,9.41424,14.9502,12.67495,23.1735C567.20044,146.46051,567.502,154.67621,570.088,162.67158Zm-16.6865,14.77571c1.91024,2.45054,3.96978,4.799,5.89633,7.22751,4.11093,4.98624,6.78361,11.17845,9.79283,16.87783.09857.07538.38267.26671.5393.13915a.725.725,0,0,0,.0289-.46963,35.84561,35.84561,0,0,1-1.74518-4.93406c-2.0118-7.52573-6.60387-13.90928-11.54372-19.7826a55.35643,55.35643,0,0,1-5.43431-8.76877c-.37125-1.46026-.72782-2.83746-1.0709-4.09108a72.86863,72.86863,0,0,1-1.64635-15.41322c5.19615,11.12119,15.67666,18.52663,25.847,25.0842,6.86478,4.39484,13.64838,10.27976,15.04559,18.80855,1.05541,7.40978.72484,16.1067-4.24392,22.17136a11.363,11.363,0,0,1-1.61608,1.5485c-.10038.08036-.19985.16153-.30322.23808a10.06947,10.06947,0,0,1-.90692.59828c-.05219.03035-.10654.05626-.15936.08552a8.71753,8.71753,0,0,1-.883.42551c-.07111.02944-.14123.06124-.21289.08851a6.08456,6.08456,0,0,1-4.77208-.03325c-.22367-.1049-.45024-.22584-.67754-.33519-.02229-.01069-.04448-.01984-.06677-.03035-.08651-.04058-.17312-.07881-.25973-.11324-.04239-.01685-.08461-.02981-.12692-.04457-.06831-.02374-.13643-.04548-.20447-.06251-.04928-.01241-.09829-.01993-.14739-.028a1.47891,1.47891,0,0,0-.18517-.01921,1.23235,1.23235,0,0,0-.15193.0048,1.1456,1.1456,0,0,0-.18155.03171,1.10163,1.10163,0,0,0-.14576.04647,1.23362,1.23362,0,0,0-.18961.10156,1.32148,1.32148,0,0,0-.129.08742c-.02056.0164-.04176.0241-.06223.04222l.00208.01739-.01359.0135C563.14894,210.97412,557.34918,192.55684,553.4015,177.44729Zm27.65033,75.03454c-1.01826-10.718-2.71933-21.36427-4.09634-32.03422a13.06919,13.06919,0,0,0,1.53374.09331,11.32743,11.32743,0,0,0,2.34011-.24542c.14721,2.0956.31082,4.18911.524,6.28109,1.06111,9.56661,2.90468,19.00567,3.71648,28.60128a.98226.98226,0,0,0,.0058.13335v.0058c.65535,19.41933-1.4118,38.83884-1.64743,58.26777-.98774,1.40464-1.96451,2.81671-2.91837,4.24364.11669-4.48371.25838-8.965.58832-13.43756C582.75054,287.16516,583.30144,269.73073,581.05183,252.48183ZM570.6446,339.76416c2.33313-4.28495,4.83586-8.47868,7.42754-12.61561q.96862-1.55255,1.95581-3.09565,1.3074-2.03454,2.63571-4.054c1.05922-1.60422,2.15077-3.18778,3.25419-4.76292.1522-.21652.29742-.4363.4507-.65236l.00009-.00743a152.20346,152.20346,0,0,1,29.44842-31.78237,33.45373,33.45373,0,0,0,1.60187,4.8354c-13.3226,10.302-24.45729,23.61115-33.648,37.698A164.82775,164.82775,0,0,0,569.71784,350.211c.00933-1.01971.02437-2.03906.01639-3.06023-.02908-1.72018-.1011-3.44009-.1935-5.159C569.94649,341.23059,570.2623,340.33318,570.6446,339.76416ZM434.6594,206.23158c28.2824-2.39455,61.64951-15.5675,86.09375,4.934a1.29026,1.29026,0,0,1-.10436-.08117c11.13206,9.38109,19.15634,24.18325,17.19092,39.0434a23.59329,23.59329,0,0,1-.574,2.54412,13.62046,13.62046,0,0,0-2.61478-5.072c-.193-.27078-.39073-.52471-.58795-.78082l-.00942-.03089c-.03587-.04648-.07447-.08253-.11052-.12846-.43358-.55416-.87912-1.06827-1.33435-1.551-.08887-.094-.17819-.18789-.26788-.27921a17.75008,17.75008,0,0,0-1.42584-1.311c-.039-.03207-.07483-.07311-.114-.10473l-.00571.01124a13.21111,13.21111,0,0,0-6.201-2.83756l-.003-.00888c-.07964-.01322-.16389-.014-.24406-.02581q-.52467-.07638-1.06465-.11279c-.15274-.01006-.3062-.019-.46094-.0241q-.58921-.0193-1.19764.01015c-.07111.00344-.13833-.00272-.2099.00181l.00154.00471a17.94978,17.94978,0,0,0-2.81083.40042c-9.39367-2.34672-28.43-4.09671-29.89685-3.99406-11.74094-1.25236-23.85857-1.9887-35.30961-5.14279a.6785.6785,0,0,0-.64937.12756c-.05789.09277.08126.2957.13924.35947a32.62841,32.62841,0,0,0,4.80079,1.67561c15.607,4.59959,31.90413,5.41954,47.97949,7.51206-.37759.01948-.66287.0298-.80882.02093-4.81809.3399-9.51008.88418-14.36732,1.032-.61911.14568-5.407-.15437-3.58911,1.06682,6.88933-.27377,13.92749-.14023,20.87606-.30955-5.64548,2.43405-11.21767,5.095-17.06209,7.01271a61.27022,61.27022,0,0,1-23.29472,3.086,59.79915,59.79915,0,0,1-9.47548-1.46253.916.916,0,0,0-.93338.14494c-.06966.36527.37506.61241.70146.67836a71.992,71.992,0,0,0,15.44,2.30179c8.43384.33266,16.52814-1.75669,24.28253-4.81946-1.68548.96582-3.37069,1.94014-5.0713,2.89816-8.16931,4.45283-17.23151,8.27368-26.73426,7.60112-16.32132-.67257-34.90963-16.80246-44.09929-29.57535l-.0116-.01159h.0058a.24542.24542,0,0,1-.029-.04059c-.71043-.984-1.37828-1.99141-2.02693-3.0094-.172-.26988-.33909-.54248-.50732-.81444q-.79386-1.28482-1.53827-2.59684c-.08289-.14676-.17049-.2909-.25248-.4382-.54247-.97442-1.06066-1.96234-1.56907-2.9556q-.2802-.54858-.55488-1.09989c-1.0256-2.05818-1.999-4.145-2.94346-6.24774,2.83873,3.43012,5.97579,6.619,9.0188,9.86757,2.07,1.97927,3.82593,4.66372,6.38346,5.96681.35485.05871.64384-.22322.40015-.51674a107.35355,107.35355,0,0,1-11.67689-13.428c-.46429-.53613-.9034-1.095-1.33-1.66447a76.05337,76.05337,0,0,0,26.97777,14.7816c.98647.2283,1.12254-.59356.26662-.88128a63.56838,63.56838,0,0,1-9.41588-4.15713,76.42255,76.42255,0,0,1-22.23577-17.58645A109.04182,109.04182,0,0,0,434.6594,206.23158Zm40.893,59.86383c-16.12419.21453-31.83075-6.74881-43.044-18.31572-.545-.60553-1.08431-1.22192-1.621-1.84158,9.84193,9.10387,22.553,17.09988,34.34442,17.641.94525.08117,1.87292.116,2.8006.116,16.71539,0,30.13756-12.10032,45.09645-18.13019a33.16487,33.16487,0,0,1,7.26193-2.00319c.20366-.02546.41184-.0587.61123-.07664.197-.01812.38674-.02057.58007-.03071.25312-.01341.50841-.0309.755-.031.1098.00028.21507.01251.32369.01559a11.39162,11.39162,0,0,1,1.25707.10436c.14486.0202.28863.04439.43158.07057a9.94917,9.94917,0,0,1,1.212.30086,12.38419,12.38419,0,0,1,5.78916,4.21792c.31608.38013.6298.7964.94325,1.22853.06469.08941.12964.167.19423.25864q.54723.7743,1.09464,1.65957c.00806.01314.01622.02392.02428.03706l.00163.00344a4.92479,4.92479,0,0,1,.31789.73734c.01785.05037.03524.10581.05281.1579.07021.20691.13916.42579.2081.65227.11369.37333.22965.76189.35739,1.14256l.01268.03614c.10318.305.21371.60308.33836.87848.00707.01586.01223.0347.01939.05037-.2947-.00126-.591.00182-.88473,0h-.28428l.00027.00064q-1.76847-.01033-3.53231.05109l-.01042-.02274h-.0058c-.72483.029-1.44359.06958-2.17423.14495-.32468.0058-.64937.0174-.97405.029l.0115.02582C509.30691,255.935,493.59891,267.17745,475.55243,266.09541ZM562.4579,337.9668c-1.751-26.09078-15.41095-48.84193-26.93719-71.62787q-2.04-4.15062-3.96462-8.37125,1.7421-.03817,3.483-.0337c1.63421,3.57081,3.51456,7.04125,5.46185,10.44,4.476,8.05915,9.31151,15.90957,13.53821,24.07888,7.93676,16.0278,11.4862,32.55658,12.35951,49.33412a1.41041,1.41041,0,0,0,.03416.61c.94416,19.599-1.73921,39.5335-5.36066,59.40525-2.08156,11.78723-4.15142,23.57446-5.99517,35.39648-.06206.46067-.11134.92242-.16986,1.38345l-.00988.01386c-.026.20392-.04167.40884-.067.61277q-.42683,3.45186-.75627,6.913l.00009-.00028v.00028a3.38927,3.38927,0,0,1,.2841-.68416c.6356-1.2019,1.32674-2.37064,2.04061-3.52525.20927-.33827.42479-.67292.64-1.00766a116.48248,116.48248,0,0,1,7.59323-10.29245c10.76444-13.78734,24.16386-26.01132,39.5441-34.55161a10.94393,10.94393,0,0,0,3.03876,3.45512c-11.31243,7.05692-21.01476,17.63428-29.72872,27.00894a148.8184,148.8184,0,0,0-32.74682,64.41522q-3.17872,12.492-5.21181,25.24255l-.01223-.01567c-.04068.25293-.07673.50659-.11659.75989-.0357.22585-.06876.452-.10391.67791-.13263.85665-.26762,1.71366-.394,2.56858l.02582.03316c-.73562,5.02347-1.36442,10.06234-1.837,15.11725l-.00362-.00037c-.09857,1.00305-.18554,2.0003-.26671,3.00334l.03108.00281q-.81561,9.81027-.97143,19.6555a79.00285,79.00285,0,0,0-8.073-3.527,56.79638,56.79638,0,0,0-6.334-1.394c.12964-.83228.25139-1.66619.38864-2.49792.76678-4.8923,1.75587-9.7363,2.84317-14.56011q.29094-1.29828.5942-2.59286c1.0594-4.55528,2.18728-9.09689,3.29414-13.64574.76406-3.12229,1.53881-6.39958,2.30532-9.77816l.00227.00281c.07021-.30847.139-.62554.209-.93555.14323-.63678.2861-1.27229.42833-1.91677.06359-.2879.12873-.56865.19178-.85837l-.00407-.00507c8.79648-40.19809,15.27841-94.74276-14.03285-123.90871-.09694-.10192-.19976-.1974-.29724-.29869a22.25,22.25,0,0,0,1.92021-3.72264c16.16169,17.31775,23.79189,37.75561,26.27513,60.887.20229,1.86449.37578,3.7414.512,5.642h.0405c1.032,0,1.53075-1.08422,1.58864-2.02349,1.59434-8.16931,3.815-16.19367,5.71677-24.28761C559.30961,392.17183,563.861,365.08961,562.4579,337.9668ZM469.25006,509.54553a43.978,43.978,0,0,0-5.83111,5.4084,16.13894,16.13894,0,0,0-9.27011-2.322,75.06393,75.06393,0,0,1,14.80552-12.60664c.2725-.26671.4-.67257-.09277-.72475-2.77151.95666-5.01522,3.357-7.42137,5.05581a68.75282,68.75282,0,0,0-9.31586,8.46247,26.24267,26.24267,0,0,0-3.50359.73308c-.18173.04992-.35821.05853-.538.09395-.41093-.34788-.82639-.68978-1.23614-1.039q-1.86713-1.59127-3.71975-3.20717a79.35825,79.35825,0,0,1,5.30857-7.24654c4.72514-5.40948,10.51159-9.85651,16.33282-14.04843.3014-.24351.49274-.74214-.05227-.70155-8.63188,5.64367-16.70815,12.52892-22.75,20.985-2.72685-2.38114-5.44337-4.78258-8.16732-7.17822a1.35406,1.35406,0,0,0,.17829-.2889,76.51226,76.51226,0,0,1,4.34846-6.7952c5.52-7.39093,12.90832-13.24179,20.22343-18.6462.2783-.516-.32849-.78128-.75971-.72475-3.64283,1.80824-6.64853,4.82969-9.845,7.34021a68.14637,68.14637,0,0,0-13.29452,14.10061c-.81506,1.20489-1.62207,2.42789-2.36674,3.68233-3.37105-2.955-6.76566-5.88383-10.21753-8.73588.85529-1.26187,1.70351-2.52818,2.5752-3.77963a74.09328,74.09328,0,0,1,25.87054-21.98c1.05514-.44065.5971-1.28715-.37107-.99725a77.16686,77.16686,0,0,0-26.572,21.16252c-1.0854,1.38806-2.11689,2.81572-3.1337,4.25333-3.23689-2.6339-6.53638-5.18309-9.92247-7.6118.99625-1.52123,2.02294-3.02,3.18217-4.47457a92.34462,92.34462,0,0,1,28.88548-23.22658c1.16529-.93927-.197-1.44369-.99725-.8523-12.55546,6.74773-24.3696,15.71308-32.733,27.36659-3.06648-2.14143-6.21269-4.17162-9.45809-6.06175A92.06211,92.06211,0,0,1,435.03626,444.336c1.1364-.35368.63207-1.06683-.26091-.69576-14.67044,6.9108-27.86422,16.95819-37.263,30.22209a91.69492,91.69492,0,0,0-12.23675-5.92351,56.55977,56.55977,0,0,1,4.6004-7.09026c8.80129-11.12627,20.55962-19.99713,33.22814-26.26471a1.18483,1.18483,0,0,0,.63769-.44065c.04647-.04058-.0058-.13335-.0405-.15654a.66283.66283,0,0,0-.64937-.16235c-15.67684,7.52909-30.69851,18.31718-39.86408,33.36322a38.63117,38.63117,0,0,0-15.78582-2.34092,74.32555,74.32555,0,0,1,5.90929-8.3871,143.20706,143.20706,0,0,1,37.0835-28.76943,7.24172,7.24172,0,0,0,1.37421-.77692c.66667-.74794-.5277-.632-.8465-.39426-10.80729,5.20076-20.66389,12.18729-29.9754,19.70723a64.614,64.614,0,0,0-16.68007,19.055c-8.09738,1.5322-15.37218,6.36352-23.38141,13.87015a77.624,77.624,0,0,1,4.69444-8.39471c12.88694-19.86595,31.7396-35.54723,52.62781-46.48289.68053-.4921,2.00038-.55153,2.18619-1.48935-.48558-.68923-1.40012.09422-2.01769.32976-22.46017,11.49081-43.91068,27.19818-56.86068,49.27678a97.22438,97.22438,0,0,0-5.49772,11.53583q-1.99092,2.03264-4.06717,4.25271c-.20284-1.44913-.36138-2.90631-.48486-4.36975a97.62916,97.62916,0,0,1,5.06886-11.974c4.66744-9.30571,11.38138-17.5214,18.32161-25.24427,5.479-6.05306,11.50884-12.00176,18.61142-16.20527a12.42189,12.42189,0,0,0,2.23221-1.47848.77258.77258,0,0,0,.12176-.516c-.80021-.79432-1.925.62617-2.74832,1.003-8.26787,4.91666-15.42254,11.41616-21.98582,18.40269-5.51956,6.03567-11.074,12.1815-15.01081,19.39415a68.58214,68.58214,0,0,0-4.8604,10.303c0-.54944-.02256-1.09527-.00987-1.64671,1.47268-16.06611,12.19888-29.81885,24.57171-39.513a165.60956,165.60956,0,0,1,26.16035-16.28065c12.62784-6.42413,26.87929-4.27888,38.79979,2.69025,14.81965,8.30846,26.58949,20.88422,37.74465,33.489,15.37626,17.41124,30.43924,35.19356,45.16612,53.10922a.33241.33241,0,0,0-.02319-.04058c4.43543,5.41945,8.747,10.9583,12.98659,16.55323a25.8144,25.8144,0,0,0-4.20279.17385c-2.88738.12756-6.38934.30149-9.09118-1.22916-3.80346-2.46413-7.86782-5.595-12.71491-4.37746-2.35387.33628-4.8007.99725-7.16046.39426-2.5396-.77112-4.57468-2.841-7.23585-3.78606a12.00184,12.00184,0,0,0-5.6703-.603,17.55516,17.55516,0,0,1-4.01816-.09277,8.57546,8.57546,0,0,1-2.27506-.89325,45.26136,45.26136,0,0,1,5.19732-4.87571C470.5661,510.05575,470.65887,508.844,469.25006,509.54553Zm-115.57643,8.04755c-1.88116,5.36909-.64738,13.391-4.01517,18.08635-7.17342-13.54284-13.94443-27.76974-16.90293-42.77121,1.04445-1.2057,2.10711-2.39664,3.20536-3.55695.06478-.06785.13182-.13734.19677-.20528a2.60023,2.60023,0,0,0,.18671-.19469c7.29011-7.62294,15.60673-16.0961,25.73067-19.36406.09069-.02917.18264-.05382.27359-.08208q1.06878-.33415,2.16563-.585c.13145-.03017.26109-.0655.39335-.09376a27.3226,27.3226,0,0,1,8.24713-.52164,74.95718,74.95718,0,0,1,23.37154,8.80781c.2282.12783.4574.25366.68515.38366a193.02552,193.02552,0,0,1,21.494,14.76865l-.002.00281c.5682.42905,1.1364.86389,1.6988,1.30454l.00145-.0019q1.7936,1.38213,3.57008,2.75592,8.35041,6.91379,16.85609,13.64747l-.01313.0183c.41754.34208.8349.67256,1.25245,1.00305l.01766-.02664q1.76154,1.39654,3.52488,2.78945c-2.65337-.28763-5.17077-1.64154-7.804-2.20041-3.02073-.78852-5.77467.2841-8.53458,1.35092a17.35218,17.35218,0,0,1-6.60957,1.62922c-2.69025-.603-5.3632-2.841-8.28536-3.26424a12.58087,12.58087,0,0,0-5.16009-.029,13.38309,13.38309,0,0,1-4.87616.05218c-3.91942-1.85534-8.05336-4.42963-12.58744-4.89347-3.49608-.458-6.99224.36527-10.4885.40586a30.29274,30.29274,0,0,1-4.86439-.30729,31.156,31.156,0,0,0-4.58626-.31309c-2.864.058-5.71089.75953-8.58668.61458a15.09065,15.09065,0,0,0-10.848,2.14524C349.50491,511.28491,352.972,514.926,353.67363,517.59308Zm114.53859-54.8486c-18.739-20.62911-38.59115-46.77206-68.40421-49.58407-11.28281-.53921-21.39444,4.79491-30.75242,10.66243-22.733,12.99185-43.84138,34.01947-40.57242,61.54017l-.00734.02246c.16805,1.44369.40586,2.90478.72465,4.389l.006-.00906c.04005.19133.06768.3795.11007.57146.03316.19849.07945.39381.11379.592l-.0096.011c.13869.80021.31435,1.59253.471,2.38912.14295.72329.26988,1.45039.42778,2.17.01721.07818.02908.15772.04647.23581l.00816-.0096a136.38534,136.38534,0,0,0,12.10376,32.47232c1.6227,3.20953,3.29777,6.396,4.97663,9.579a9.01416,9.01416,0,0,1-2.02556,1.00223c-1.60024.41166-3.60053-.01159-5.28194-.32468a12.80393,12.80393,0,0,0-8.96354,1.26975,48.23408,48.23408,0,0,1-14.15868,5.63561c-2.69605,1.05522-4.88767,3.00913-7.39239,4.43543a15.40149,15.40149,0,0,1-3.906,2.14026c-.12058-.23709-.24786-.47009-.3669-.70817-.04068-.087-.08118-.17973-.12765-.2667-.06387-.12756-.087-.17974-.11016-.22612l-.01739-.03479a127.52846,127.52846,0,0,1-6.15752-15.05728,129.51346,129.51346,0,0,1-4.08755-15.58489c-.01151-.06377-.0347-.20293-.0636-.34208a122.83329,122.83329,0,0,1-1.94811-15.5559c-.0116-.23771-.02337-.47543-.04068-.71314a.48584.48584,0,0,1-.00579-.06958c0-.02319-.0058-.05218-.0058-.08117a122.29961,122.29961,0,0,1,.10436-14.93552l.0173-.2841c0-.029.0058-.058.0058-.09277v-.01739c.006-.07537.01178-.15654.01758-.23772a129.73818,129.73818,0,0,1,2.0117-14.94711c.0058-.02319.02918-.13335.04648-.24351.01159-.05219.04629-.22033.08117-.39427a122.934,122.934,0,0,1,3.91362-14.61663c.02319-.06957.05807-.16814.09276-.2667l.05807-.17394a129.48674,129.48674,0,0,1,5.86744-14.29775.27464.27464,0,0,1,.01159-.029c.0232-.04058.0405-.087.06387-.12755a128.51338,128.51338,0,0,1,7.6648-13.48023l.06958-.11016c.00579-.0058.06957-.10437.13326-.20293a125.76909,125.76909,0,0,1,9.555-12.64533c.02337-.029.087-.10436.15664-.18554l.04647-.04638A125.2194,125.2194,0,0,1,333.82725,404.678a1.94366,1.94366,0,0,0,.15663-.13335c.05228-.04639.10437-.09857.16235-.14495.00579-.0116.04629-.04059.08117-.07537a.15416.15416,0,0,0,.03479-.029,128.05386,128.05386,0,0,1,12.92951-9.97828c2.4124-1.61681,4.94194-3.16658,7.53906-4.64832,1.20634-.32442,2.40352-.61857,3.59446-.89225.42361-.09748.84532-.18916,1.266-.27921,45.38618-9.79853,79.67308,16.84024,109.20666,49.374,21.13579,21.99887,40.76719,45.30872,59.7456,69.16728-1.54814,6.79964-3.23444,13.57128-4.85832,20.35479a21.2282,21.2282,0,0,0-2.88375-.93338C504.29087,504.438,486.01093,483.74266,468.21222,462.74448Zm32.3695-101.33729c.30014.18444.59674.37632.89461.56539.4517.28654.90366.57209,1.35047.86842.27785.18436.55234.37487.82838.56258.45822.31155.91707.62219,1.37076.94235.2629.18544.52263.37632.78408.5643.46067.33121.9217.66151,1.3782.9997.25157.18653.50043.37705.75092.5653.46121.34661.923.69258,1.38055,1.04435.22793.1753.45369.35332.6808.5297.48286.37487.96618.74939,1.4456,1.12779.07854.06206.15627.12457.23472.18662,1.97737,1.56436,3.929,3.14947,5.86961,4.70268-.04675.23473-.08932.4719-.14431.70147-.06922.28736-.13834.57463-.22051.85365a17.968,17.968,0,0,1-2.38232,5.067c-.07791.11523-.15111.23445-.23147.3476-4.72406,6.66194-13.61331,10.1697-21.59075,11.72708-21.035,4.88188-41.81481-4.02377-62.786-5.29353-10.01305-.49862-19.96234-1.78576-29.9696-2.41194-7.94455-.14124-15.98476-1.50674-23.03933-5.15547.93673.08752,1.7614.13535,2.36955.13444.97415.04059,1.9424.058,2.91066.058,15.46884,0,30.474-4.73112,44.67891-10.703,17.11564-7.51415,34.92115-16.70969,54.18184-14.93552C488.41192,355.10128,494.71239,357.80032,500.58172,361.40719ZM436.08007,391.018c14.083,1.73359,27.95183,5.77476,42.19748,6.24439,12.568-.20682,28.95243-2.86708,37.34551-12.79254q.97052,1.01047,1.90064,2.05474c24.937,27.26776,19.68413,75.03707,13.50351,108.78113-.51457,2.67993-1.0795,5.3497-1.66229,8.01594-17.50555-21.9678-35.57495-43.5031-54.98368-63.8386-19.38581-21.51691-40.73-41.52093-66.08512-50.72345C417.66062,389.48439,427.148,390.11438,436.08007,391.018ZM398.833,361.93444l.001.00108c.02818-.015.05617-.03089.08435-.04593.43231-.23146.86172-.46873,1.2923-.70363.43222-.23564.866-.46674,1.29621-.70572l-.00372-.004c5.29444-2.94056,10.462-6.12218,15.519-9.42348,12.286-7.98378,23.87605-17.44023,37.81423-22.44966a52.93527,52.93527,0,0,1,15.34138-2.28439c9.67687,0,19.342,2.71344,27.04164,8.63894a55.31535,55.31535,0,0,1,19.73114,31.83383,65.29593,65.29593,0,0,0-7.32389-7.79263A91.85535,91.85535,0,0,0,493.601,347.71025a56.44361,56.44361,0,0,0-6.5342-2.96855,2.15475,2.15475,0,0,0-1.46688-.18553c-1.70514.603.00634,2.12712,1.096,2.17423,8.433,2.26265,15.23021,8.26643,21.41237,14.189a67.25851,67.25851,0,0,1,4.80441,5.525C495.78528,352.6646,480.1608,347.315,457.05117,354.259a110.90561,110.90561,0,0,0-17.26621,6.285c-19.26088,8.81288-39.69856,17.69534-61.354,16.47777a41.307,41.307,0,0,1-7.35316-1.11946c-.17294-.04566-.34217-.1127-.51439-.16243a144.37237,144.37237,0,0,0,37.03586-8.71957c5.569-1.95029,11.4254-3.63677,16.54182-6.56328.60063-.97478-.93628-.60154-1.33942-.25511-5.73417,2.8062-11.98509,4.47311-18.0838,6.32556-9.847,3.39615-20.10575,5.18916-30.39875,6.65025a21.96854,21.96854,0,0,1-3.60433.24641A134.39727,134.39727,0,0,0,398.833,361.93444ZM290.2129,421.68775c1.20416-2.91393,2.28122-5.88755,3.73605-8.68678a81.173,81.173,0,0,1,26.28328-27.21413c1.01238-.74359.23681-1.535-.68415-.93927-13.28,8.26987-25.04887,19.93861-30.96142,34.61621q-.62332-.85284-1.24719-1.7056-2.41476-3.31013-4.837-6.61256a35.22805,35.22805,0,0,1,1.63058-4.47312c4.18621-9.27092,10.91754-17.44023,18.43748-24.25862.38846-.18553.94507-1.21177.17394-1.27555a1.05114,1.05114,0,0,0-.74794.22033,85.03081,85.03081,0,0,0-7.891,7.404,66.5626,66.5626,0,0,0-11.31759,15.43414c-.73607,1.49524-1.38055,3.03912-2.01207,4.58835q-2.21528-3.02694-4.42937-6.05523-.66136-.90353-1.32129-1.80715a52.27875,52.27875,0,0,1,14.47114-21.76732.89688.89688,0,0,0,.21443-.57979c-.07537-.24351-.37107-.30149-.61467-.2899-3.71649,1.83215-6.33128,5.46747-8.85918,8.66794a54.68777,54.68777,0,0,0-6.80426,11.79085q-1.98534-2.71452-3.96942-5.429l.001-.00154c-.5422-.73707-1.07833-1.4696-1.61093-2.20576a4.3317,4.3317,0,0,1,.34127-.844c3.39171-8.91145,10.50588-15.96176,17.71853-21.93365.30729-.52761-.19133-.70155-.62038-.58559-7.91139,5.46556-15.02013,12.5454-18.931,21.32848q-.62835-.85991-1.25743-1.71981-1.53923-2.10588-3.08007-4.21176c.16669-.47951.32885-.96137.50578-1.43545,3.83244-9.76954,10.77259-18.3621,18.84334-24.98916.458-.18554,1.35083-1.22337.30149-1.1364-6.4937,4.2499-11.89739,10.30876-16.45458,16.59373a40.28519,40.28519,0,0,0-4.66826,8.95412q-2.554-3.49344-5.10953-6.98671a33.83977,33.83977,0,0,1,1.22581-4.37356,61.53954,61.53954,0,0,1,21.464-26.45024c.33628-.26091.945-.34788,1.12471-.77693-.02889-.5508-.77683-.44644-1.11891-.23192-10.87741,6.54118-21.003,16.65153-24.73143,29.04891q-1.7334-2.3676-3.46509-4.73711a57.78174,57.78174,0,0,1,1.6882-7.50354c4.59207-12.82507,15.80531-25.26747,27.865-31.52925.51013-.24931,1.31034-.38267,1.374-1.05523-.21452-.38846-.80582-.31889-1.15949-.14495-7.00384,2.85839-12.80188,7.96639-18.01424,13.33529-6.64191,6.61437-11.99441,14.80533-13.81135,24.08432q-1.15941-1.58543-2.31954-3.171c.15138-1.84456-.09693-3.78216.16914-5.6183,1.9887-19.08685,19.04047-34.5094,37.52424-37.6055.8118-.22033,1.93661.20292,2.5395-.42905-.168-.73634-1.21177-.487-1.80307-.51022-20.38931,1.6448-40.72208,19.37167-41.33866,40.18631l-.11079-.15147q-1.433-1.95857-2.866-3.91715c-.00788-.5865-.029-1.16774-.01577-1.759a49.61365,49.61365,0,0,1,.55661-5.9313,50.2051,50.2051,0,0,1,1.33941-5.80375c.51593-1.62923,1.09573-3.22946,1.76258-4.8123a44.68673,44.68673,0,0,1,6.14583-10.22758l.0231-.029a.991.991,0,0,0,.06387-.08117,44.51533,44.51533,0,0,1,7.91411-7.6591c.087-.06377.20293-.15074.319-.23771a47.33688,47.33688,0,0,1,4.73692-3.06712l.06949-.04058a.14569.14569,0,0,0,.04067-.0232,52.8711,52.8711,0,0,1,5.07312-2.42354,51.79808,51.79808,0,0,1,5.80375-1.89013,49.08816,49.08816,0,0,1,5.87332-1.06682l.02328-.0058.13906-.01739a49.88607,49.88607,0,0,1,6.05886-.24932,52.033,52.033,0,0,1,5.76325.52182,50.39529,50.39529,0,0,1,5.63552,1.25815l.02328.0058c.09857.029.19133.058.2841.087,1.32365.39662,2.62339.87857,3.90773,1.39559q2.32017,3.25224,4.658,6.48754c.44653.71731.90529,1.42657,1.38544,2.12123a1.04991,1.04991,0,0,0,.28292.20239q1.94322,2.697,3.8781,5.40133c3.64682,5.0964,7.28232,10.1986,10.95813,15.2776,3.6643,5.06161,7.27072,10.1696,10.93493,15.237q5.40948,7.48806,10.7725,15.0109c3.52515,4.92825,7.07948,9.84491,10.59883,14.77317q.31473.43988.63071.87966c-.68135.3727-1.36007.74748-2.034,1.13368-13.77539,4.02858-28.91293,12.4934-41.97245,22.37166a88.06675,88.06675,0,0,1,17.62115-16.33744c.35358-.661-.60878-.71315-.98565-.43485a73.43779,73.43779,0,0,0-23.18483,21.99253,140.10288,140.10288,0,0,0-11.68649,10.953Q291.64463,423.64605,290.2129,421.68775Zm-18.96863,94.75734c-6.42114-31.47979,1.52667-62.634,21.55433-86.19558l.00245.00326c.27848-.33067.57218-.654.85782-.98212,2.08636-2.39175,4.2874-4.71029,6.62416-6.93272l-.00263.00643q1.35306-1.2889,2.75983-2.53424c.142-.12566.29044-.24624.43321-.37125.8302-.72665,1.66809-1.44714,2.52945-2.15032l.00181-.003c.86217-.70862,1.73431-1.40953,2.62475-2.09587,10.35505-7.817,21.32848-15.33159,33.21183-20.71843-3.31506,2.39573-6.52677,4.93288-9.59107,7.64985-.12167.11017-.23763.20873-.3593.31889a122.67417,122.67417,0,0,0-11.48582,11.65388l-.21462.25511a122.63916,122.63916,0,0,0-9.75206,12.92363l-.05218.07537a.02035.02035,0,0,0-.00571.0116c-.05227.08117-.11614.17394-.174.26671-1.635,2.48152-3.26995,5.18916-4.7949,7.95478a126.008,126.008,0,0,0-9.15506,20.79145c-.0231.06378-.05789.16814-.09276.26671a124.2558,124.2558,0,0,0-4.05839,15.2602c0,.01739-.03488.17394-.06387.32469a121.65976,121.65976,0,0,0-2.06977,15.5385c-.0058.06378-.01758.19133-.02338.31309a120.15648,120.15648,0,0,0-.09276,15.63127,126.49291,126.49291,0,0,0,2.07575,16.81406c.64937,3.357,1.4321,6.7778,2.39465,10.15221a128.44006,128.44006,0,0,0,8.26778,21.63215s.01459.03189.03669.07836a14.38672,14.38672,0,0,1-3.44008-.79151,21.16778,21.16778,0,0,0-2.1428-.58224c-.28663-.65571-.57563-1.31133-.84315-1.96886-6.89367-17.649-12.60474-36.48649-11.6248-55.64292.24913-.98565-.44653-1.58864-.70744-.41166-1.16529,16.73289,2.00618,33.50056,7.317,49.33476.95838,2.85812,1.97873,5.69658,3.12228,8.48412a11.70645,11.70645,0,0,0-2.42082.39834,12.32126,12.32126,0,0,0-2.13963,1.02569,167.82694,167.82694,0,0,1-12.04216-39.49509c.0116-.62618-.49282-2.35976-.91607-1.10741,1.63973,14.40564,4.79789,28.88059,10.80239,42.138a26.17507,26.17507,0,0,0-3.08849,3.18534C278.69065,543.93743,273.76275,530.50131,271.24427,516.44509Zm-41.1669,77.92254c1.54235.23355,3.08941.43385,4.63981.5875,7.21845.75953,14.35573-1.11321,21.56267-.93347.3477.01739.8.02319.96237-.34788-.19713-.51022-.893-.38266-1.351-.41165-5.78047-.37687-11.58413-.13335-17.37057-.38846a54.89329,54.89329,0,0,1-7.60093-1.00839,9.50628,9.50628,0,0,1,5.57165-5.29978,8.55127,8.55127,0,0,1,3.728.087,13.95893,13.95893,0,0,0,7.52383,1.40745,48.43859,48.43859,0,0,0,10.26971,1.319c14.33879-.49282,28.66561-1.80678,42.99751-2.33657.85284-.33628-.24868-.7907-.661-.67836-10.64032-.245-21.10272-.00942-31.77267.18553a94.85423,94.85423,0,0,1-16.80608-.17611c2.12268-1.55467,3.82827-3.94089,5.71007-6.43156,6.91387-.1252,13.82114-.9341,20.73265-1.15143,5.82106-.22612,11.75816.22612,17.60829.06377.48712.11016,1.73358-.24931,1.16539-.86969-8.81289-.40586-17.94457-1.39731-26.8909-.93347-3.624.1579-7.20658.37614-10.79351.56693a28.10408,28.10408,0,0,1,3.1577-3.30356c2.52782-2.13945,5.75157-2.986,9.01573-3.33962a12.47882,12.47882,0,0,0,1.72045-.23572,130.491,130.491,0,0,0,17.16356,1.73159,111.95654,111.95654,0,0,0,14.07742-.5798c10.361-.62617,20.81464-.44064,31.18138-.56819.62627-.38267-.35948-.70156-.74214-.64937-9.69408-.15655-19.38255-.89289-29.07663-.8697a130.593,130.593,0,0,1-25.18059-.77112c-.91336-.10237-1.82544-.23238-2.73735-.36736a29.05638,29.05638,0,0,0,5.83817-5.97814l.00118.00254c.64955-.82929,1.29575-1.66012,1.949-2.47718a32.54937,32.54937,0,0,1,3.91253-4.24844q.36894-.29856.72013-.55027c.11088-.07935.21706-.14621.32532-.2186a7.11065,7.11065,0,0,1,4.974-1.43535,9.59381,9.59381,0,0,1,1.458.28926c.03886.01051.07782.01993.11659.03071.42905.1195.86027.25928,1.29811.40133l.21062.06822a12.23187,12.23187,0,0,0,5.43649.767l.00208.00416c.01658-.0019.03551-.00752.05209-.00951a11.16848,11.16848,0,0,0,1.18695-.21706c.10292-.02382.20492-.04711.30983-.07438a13.42377,13.42377,0,0,0,1.30155-.40984c.041-.01513.07691-.02147.11813-.03714l-.00435-.00843a23.76624,23.76624,0,0,0,5.45443-3.08768,58.377,58.377,0,0,1,5.09639-3.17148c2.35968-.92767,4.96876-1.04363,7.27634-2.14524,3.444-1.35092,6.48791-3.53675,9.96668-4.77171a13.52,13.52,0,0,1,5.6587.13915c2.22071.36527,4.43553.73054,6.58648-.17394a10.51076,10.51076,0,0,0,1.74219-.85211l.009.01721c.0828-.04938.15-.11152.23065-.1628q.41541-.26376.792-.559c.12574-.09829.25285-.19513.37234-.29832a9.90731,9.90731,0,0,0,.73326-.709c.064-.068.14069-.12629.20256-.19586l-.00453-.00843c3.30212-3.708,3.76351-9.59923,4.30081-14.50964.13327-2.296,1.04354-4.8065,1.12472-6.917-.59149-2.04088-1.751-3.86723-2.39456-5.87912a12.56772,12.56772,0,0,1,8.79549-1.50747c5.01523-.04638,9.98978-1.1306,14.99341-.09277a34.1585,34.1585,0,0,0,6.92864-.15074,37.50964,37.50964,0,0,1,6.35464-.19713c3.43819.37686,6.54,2.02928,9.57813,3.55994,3.06131,2.17423,6.84747,1.59443,10.33194,1.08421,2.64967-.18553,5.27614,1.02044,7.58952,2.24381,4.94556,3.27584,10.11742-.49283,15.063-1.751,3.92531-.86969,7.14308,1.809,11.0162,2.238a14.73552,14.73552,0,0,0,4.14644-.24035l.01069.00843c.09467-.017.19224-.03678.288-.0549l.01115-.00217c.19368-.0366.38683-.07275.58224-.11107.29569-.05218.5913-.116.887-.17394,2.75983-.5566,5.50217-1.119,8.21579.03479a19.87825,19.87825,0,0,1,2.32,1.09491l-.00081.0009c.2841.14495.5682.30149.8523.45224l.00045-.00054a12.283,12.283,0,0,0,4.58564,1.66455,14.2971,14.2971,0,0,0,3.55423.029,12.521,12.521,0,0,1,4.02369.12756c2.08717.5682,3.94831,2.10465,5.87332,3.12509,3.9716,2.47573,8.58676.79432,12.87725.50442,2.44664-.06957,4.5282,1.53646,6.51689,2.81781,4.30788,3.51356,9.8682,3.27584,15.13256,2.899a18.55633,18.55633,0,0,1,4.62024.31672q.73231.14145,1.45339.33655.25166.06835.50143.14377c.50831.15256,1.01183.32206,1.50755.51575.05282.02056.1069.0375.15945.05852-.13109.55551-.25837,1.11166-.38792,1.66745-.11469.49265-.23409.9852-.34561,1.47785l.00145.002c-.55534,2.40977-1.1,4.82163-1.61337,7.23965-.84225,3.96516-1.52133,7.97942-2.14144,12.00873a65.95247,65.95247,0,0,0-9.66092-.36428,28.47741,28.47741,0,0,1-15.74135-4.66155c-.9996-.56312-1.29131.27106-.51013.79432,3.63532,2.34962,7.38315,4.74417,11.62489,5.82114,5.23147,1.16068,10.624.68035,15.87941,1.7335.14558.02935.29117.059.43648.091.69811.15184,1.39449.324,2.08671.54112,4.58908.91,8.74857,3.48329,13.17648,5.05708v.00235c.021.00752.04249.01332.06351.02075a24.5683,24.5683,0,0,0,2.83537.824l.02918.00752v-.00154a18.10477,18.10477,0,0,0,2.08363.34579c2.67195.28483,5.17549-.18915,7.89292.221,2.72739.37252,5.1724,1.656,7.721,2.66053,3.05181-.58124-9.34086-4.908-10.42453-4.64995a23.6491,23.6491,0,0,1-7.25387-1.84022c.05608-4.521.26843-9.03855.57219-13.56711.1271-2.42173.296-4.84138.48947-7.2593.87051-.0482,1.74355-.1406,2.61823-.23745a18.47773,18.47773,0,0,1,6.63276.05218,42.84238,42.84238,0,0,1,5.96437,2.5078l.02491.03171c.2668.11595.5393.22032.8176.31888.31925.13372.64521.24741.97406.35259.09168.02926.18445.05517.27658.0828.23708.07112.4748.14006.7146.20284q.22245.05858.44572.11451c.15219.03778.30412.0761.45658.11279.45.10907.90023.21733,1.34748.33465l-.00063-.00082a12.43074,12.43074,0,0,1,2.633.95748c4.534,2.754,5.9429,8.79549,10.15212,11.90319,4.58645,1.89865,5.32062,7.41893,8.8946,10.35134-3.49462.36481-6.97176,1.06473-10.47744,1.11121-.71894-.04059-1.25806.5566-.2841.74793,4.754-.05662,9.54633-.41328,14.29566-.17,1.15742.38131,2.34292.70074,3.47515,1.1325a33.12779,33.12779,0,0,1,9.495,6.1683c-6.90935.19858-13.80284,1.13386-20.71408,1.31686-.46384-.087-1.62932.22032-1.10161.81751,10.16435.71831,20.641-.39626,30.94184.4411a10.245,10.245,0,0,1,1.74691.56194c2.66542,1.50928,4.54115,4.16529,6.27184,6.74827-1.72335.00843-3.44842.08136-5.15864.15129-15.17885.44065-30.36957-1.33352-45.51372-2.37136-.70164-.16814-1.438.33049-.50451.68416,12.7033.91608,25.30805,2.91057,37.99976,3.90782,5.70835.48829,11.44715.0443,17.16193.18916a9.60446,9.60446,0,0,1,5.28193,2.43151,11.323,11.323,0,0,1,1.97656,3.51048c-25.57675-.091-51.04071-3.67083-76.60786-4.34538-2.80611-.05218-5.653-.38847-8.436-.18554a.61241.61241,0,0,0-.39427.38847.75068.75068,0,0,0,.70726.45224c4.24419-.10437,8.43611.21452,12.71491.41165,22.33959,1.26975,44.56893,4.21511,66.90272,5.49646,1.90046.08081,3.80083.10055,5.70129.09113a16.13753,16.13753,0,0,1,.05952,4.11773c-3.69592-.31545-7.39465-.60951-11.095-.846-4.88776-.30729-9.78105-.61458-14.663-1.00885-5.24723-.42334-10.49429-.835-15.753-1.19446-9.93768-.68416-19.89847-1.00885-29.84793-1.55965-4.99765-.27251-9.99549-.59139-14.99921-.81172q-7.6185-.33918-15.2429-.63777c-7.9431-.31309-16.07762-.5508-24.21224-.81171q-14.85408-.46963-29.7144-.81172c-5.0791-.11595-10.15212-.19133-15.23122-.31888-5.20076-.12756-10.39572-.2957-15.59648-.36527-10.4769-.14495-20.95959-.06378-31.43649.01739q-7.49674.05219-14.99349.09277c-4.99793.01739-9.99558.0058-14.99341.04058q-7.88824.05219-15.77043.16814c-5.18916.08117-10.37262.22033-15.556.34208-4.8007.11016-9.60131.21453-14.3963.40006q-7.99248.2957-15.97906.74794-15.61112.88709-31.21626,1.9829c-9.9029.67836-19.81739,1.26975-29.726,1.84374q-13.63174.78789-27.24837,1.6748A17.35108,17.35108,0,0,1,230.07737,594.36763ZM632.3568,727.08778c-11.05433,1.58556-22.15731,2.88285-33.23847,4.33958-21.55686,2.43514-42.84684,4.78911-64.58916,6.39514-17.69534,1.24076-35.385,2.49892-53.10351,3.30484-7.23.37686-14.46589.59139-21.70173.79431-.48693.05219-1.432-.08117-1.49007.545a1073.80921,1073.80921,0,0,0,125.12565-6.01247c16.062-1.81132,32.24448-3.45957,48.28315-5.8909q-1.27627,6.20145-2.59993,12.45744c-16.09121,1.62487-32.09772,3.76033-48.22852,5.354-33.82533,2.64387-67.894,5.03842-101.84679,4.78911-.35377-.0058-1.9713-.30729-1.70469.41745a.97911.97911,0,0,0,.81751.38846c4.55719.33629,9.13766.35368,13.71215.37107q39.72769.12175,79.42612-2.07566c19.11-1.07643,38.08537-3.68134,57.1022-5.82622q-1.12817,5.5182-2.34491,11.015c-19.35782,2.6214-38.67006,5.52762-58.149,7.184-16.33292,1.4321-32.68313,2.5569-49.06805,3.15409-2.783.17394-5.6183.01739-8.37813.22612a.56835.56835,0,0,0-.3072.29569.74513.74513,0,0,0,.76524.37107c24.82111-.087,49.65953-.77692,74.3877-3.02653,13.34959-1.38245,26.7165-3.0595,40.02261-4.95507q-1.58338,7.05212-3.2878,14.07452c-13.37225,1.80353-26.752,3.53965-40.23668,4.3202-15.07477,1.07262-30.36378.65517-45.35737.72474-.02319.59139.84071.545,1.27555.61459,9.271.74213,18.62891.86969,27.94612,1.06682,18.63742.335,37.16-1.66329,55.65724-3.80708q-1.612,6.57923-3.30438,13.1387c-21.14095,1.72144-42.21569,5.62908-63.49081,5.314-.16225-.0116-.37687-.03479-.5682-.06378-1.86114,1.1248,4.69634,1.08422,5.6877,1.18858,19.25372.462,38.419-2.18709,57.60906-3.48094q-1.6656,6.38653-3.39008,12.75766c-14.63448.87767-29.281,2.54367-43.96812,2.76562-2.16834-.15654-1.79727,1.39731.09857,1.206,14.4012,0,28.90686-.72257,43.262-1.70641q-1.613,5.92423-3.26651,11.838c-8.9.81027-17.81221,1.76946-26.72982,2.09053l-.0058-.0058c-.458-.43485-1.55965.19713-.8754.70735a3.34407,3.34407,0,0,0,1.62913.34787c8.48576,0,16.95774-.64212,25.42818-1.14908q-1.28823,4.60176-2.59558,9.19809-4.79757.64846-9.59588,1.29729c-2.40035.39426-4.76.58559-7.16037.95666-1.39151.49863-.78843,1.81476.41754,1.93652,5.22513-.682,10.48523-1.3647,15.73763-2.06045q-1.73082,6.09165-3.47678,12.17751c-2.9979.25-5.9862.5479-8.9793.77728-.71895.03479-1.03774.75954-.27251,1.02624,2.94935-.02138,5.902-.19785,8.85529-.42071-5.16824,18.35576-11.66666,36.2794-18.248,54.1793-9.6015,26.70536-21.91635,53.631-42.85265,73.39625-22.45546,21.75391-55.672,19.17962-84.63277,21.41763-18.194,1.10161-36.411.16234-54.58761-1.003-27.86494-2.38875-57.48676-5.30512-81.7279-20.49-18.54184-12.22208-27.95191-33.63971-35.01391-53.94413a509.9276,509.9276,0,0,1-14.09472-50.44216c-6.65025-30.074-14.52967-59.72468-20.44937-89.97259-4.68629-22.59588-9.59081-45.22509-14.89548-67.73364,8.72528,2.17912,17.5475,3.97159,26.39861,5.539.23183.04639.64937.12176,1.07271.19134,1.37393.24931,2.93938.516,4.50492.78272,9.00992,1.54225,18.06641,2.8352,27.1344,3.99479q13.59317,1.73938,27.23868,3.05552,27.926,2.70474,55.9677,4.04117c.44056.02319,1.07833.05218,1.7104.08117.35947.01739.91028.04638,1.46108.06957q27.47345,1.26106,54.97027,1.46109,4.47892.03478,8.95213.03478,22.61187,0,45.21812-.73634,13.4195-.41745,26.83291-1.18858c8.76659-.49862,17.533-1.07262,26.288-1.78,10.30875-.8233,20.79724-1.84374,31.25675-3.06711,15.66606-1.838,31.32623-4.14554,46.75466-7.44457,4.44712-.95014,8.89007-1.98272,13.298-3.1501Q633.608,720.96306,632.3568,727.08778Zm22.242-26.691c-.38874,1.71184-.79441,3.42187-1.19366,5.13263-1.83414.77983-3.68568,1.52088-5.561,2.20177-.06958.0232-.3188.116-.57391.20293a214.38022,214.38022,0,0,1-25.75459,7.02132c-.20872.04058-.42895.09277-.64937.13915-.02319.0058-.07528.01739-.12746.029-.0116,0-.01739.0058-.03479.0058-9.14346,1.93651-18.3621,3.51935-27.60983,4.88187-16.46627,2.42354-33.03672,4.16873-49.62475,5.50805-.14495.0174-.34788.03479-.5508.04639-.08118.0058-.34788.029-.61459.05218q-26.65593,2.096-53.38743,2.91637-27.09975.87839-54.22243.64357-27.39531-.2-54.779-1.50747c-.29569-.01739-.78272-.04058-1.264-.06377-.19713-.0116-.5855-.029-.974-.04639-1.05522-.058-2.30758-.116-3.55994-.18553-18.61721-.97986-37.22293-2.325-55.77057-4.23251-18.28673-1.87853-36.527-4.21511-54.63988-7.39818l-.32459-.058c-.38846-.06957-.777-.13915-1.15968-.20873-9.78477-1.75532-19.64291-3.789-29.38392-6.34821-.3265-.08642-.65263-.16814-.97986-.25565l.0001.00018q-4.87722-1.30046-9.706-2.789c-2.80567-.88673-5.61079-1.872-8.40006-2.92072-1.04018-4.86484-1.96958-9.75378-2.68553-14.68186a282.01867,282.01867,0,0,1,1.476-86.07455c.87866-.07809,1.75768-.15981,2.63462-.22214,20.84372-1.51326,41.71054-2.57429,62.56559-3.873,10.14079-.632,20.26972-1.44378,30.41034-2.012,4.82389-.2725,9.642-.603,14.46588-.8349,5.39789-.26091,10.80167-.487,16.20527-.64357q15.17613-.44355,30.36387-.66677c10.1465-.15654,20.29282-.09276,30.445-.15654q7.58372-.04349,15.16744-.09857c5.224-.029,10.442-.07537,15.66615-.06377q7.90549.01738,15.81092.19133c5.17177.11016,10.34943.25511,15.5212.36527,9.92591.20872,19.858.41165,29.77809.71315,5.13128.15074,10.26246.31888,15.39356.47543,4.96893.15654,9.94946.29569,14.91821.49282,1.29294.05219,2.63236.10437,3.9658.15655,7.03291.31309,14.263.5508,21.48729.95666,5.02094.29,10.04776.58568,15.07458.8292,5.079.24931,10.1581.458,15.23122.71894,10.11733.52762,20.20585,1.44949,30.31168,2.18,5.11959.36527,10.24488.64358,15.36466,1.032,4.934.37686,9.868.8465,14.79048,1.33353,4.81809.47543,9.63619.97405,14.43689,1.55964.30222.037.60362.07465.90539.11125,1.06745,5.42235,2.09813,10.85087,3.02009,16.29424a117.54662,117.54662,0,0,1-19.08712,11.47686,53.00729,53.00729,0,0,1-6.50267,3.03667c-8.28817.25113-16.61412.316-24.79466.11161-.19713.8697,1.46117.78852,2.04667.95666a140.90506,140.90506,0,0,0,16.54192,1.0449c-4.71093,1.40583-9.53419,2.49059-14.30916,3.7029-6.47024-.17267-13.0087-.3997-19.48727-.695-1.35681.17394-3.25845-.75953-4.27889.39426-.19151.33628.16225.70155.40577.88709,5.39689.63451,10.89534,1.05142,16.40665,1.352-1.35835.42325-2.70791.87078-4.03963,1.36723a11.99865,11.99865,0,0,0-2.85522,2.83193c-1.16656-.03007-2.33023-.04348-3.49924-.0895-7.47365-.46964-15.00518-.73634-22.40917-1.93652-.51031-.20872-1.664-.04638-.98574.64937a167.92823,167.92823,0,0,0,25.66671,3.40956,15.50417,15.50417,0,0,0-1.45755,5.28193c-7.78266-.195-15.616-.29986-23.35686-.7367-1.02624.19133-5.75736-1.04363-5.22966.719a1.55885,1.55885,0,0,0,1.316.62617c2.87.21453,5.72847.35948,8.60425.53342,6.20689.33048,12.40227.80011,18.60571,1.198a15.46542,15.46542,0,0,0,1.98716,7.04922c-6.77853-.06523-13.553-.34861-20.34356-.72149-.70735.07538-2.58588-.62617-2.644.42325.29587.84071,1.3858.69576,2.11634.81752,7.47818.686,14.96224,1.37375,22.46823,1.65422.07411.0819.13689.17322.21326.2533a28.89193,28.89193,0,0,0,4.41151,3.97323c-3.95537.01069-7.91-.09114-11.86188-.43648-.78281.03479-1.81475-.49283-2.42363.17394-.62,1.85534,11.7952,2.18818,17.4608,2.31248,7.09968,4.02613,15.71389,5.51475,23.7917,5.51475h.06958c10.35342-.06957,20.38758-2.92724,30.0794-6.4292A216.98856,216.98856,0,0,1,654.59883,700.39674Z"/>
</svg>
