<svg xmlns="http://www.w3.org/2000/svg" viewBox="0 0 100 100">
  <!-- Joe Pye Weed top-view: large flat-topped dome of fuzzy florets -->
  <g fill="none" stroke="#2d3a2e" stroke-linecap="round">
    <!-- Outer ring of radiating floret clusters -->
    <path d="M50,50 C46,40 40,28 34,20" stroke-width="1.1"/>
    <path d="M50,50 C54,40 60,28 66,20" stroke-width="1.1"/>
    <path d="M50,50 C40,46 28,40 20,34" stroke-width="1.1"/>
    <path d="M50,50 C60,46 72,40 80,34" stroke-width="1.1"/>
    <path d="M50,50 C40,54 28,60 20,66" stroke-width="1.1"/>
    <path d="M50,50 C60,54 72,60 80,66" stroke-width="1.1"/>
    <path d="M50,50 C46,60 40,72 34,80" stroke-width="1.1"/>
    <path d="M50,50 C54,60 60,72 66,80" stroke-width="1.1"/>
    <path d="M50,50 C50,40 50,28 50,18" stroke-width="1.2"/>
    <path d="M50,50 C50,60 50,72 50,82" stroke-width="1.2"/>
    <path d="M50,50 C40,50 28,50 18,50" stroke-width="1.2"/>
    <path d="M50,50 C60,50 72,50 82,50" stroke-width="1.2"/>
    <!-- Mid radiating lines -->
    <path d="M50,50 C44,44 36,36 30,30" stroke-width="1.4"/>
    <path d="M50,50 C56,44 64,36 70,30" stroke-width="1.4"/>
    <path d="M50,50 C56,56 64,64 70,70" stroke-width="1.4"/>
    <path d="M50,50 C44,56 36,64 30,70" stroke-width="1.4"/>
    <!-- Dome outline (slightly domed shape) -->
    <ellipse cx="50" cy="50" rx="32" ry="32" stroke-width="1.0"/>
    <ellipse cx="50" cy="50" rx="20" ry="20" stroke-width="1.3"/>
    <!-- Whorled leaf tips peeking from below -->
    <path d="M50,50 C38,58 22,74 14,86" stroke-width="1.8"/>
    <path d="M50,50 C62,58 78,74 86,86" stroke-width="1.8"/>
    <path d="M50,50 C38,42 22,26 14,14" stroke-width="1.8"/>
    <path d="M50,50 C62,42 78,26 86,14" stroke-width="1.8"/>
  </g>
  <!-- Stippling for fuzzy floret dome -->
  <g fill="#2d3a2e" stroke="none">
    <circle cx="50" cy="36" r="0.7"/><circle cx="44" cy="38" r="0.7"/>
    <circle cx="56" cy="38" r="0.7"/><circle cx="38" cy="42" r="0.7"/>
    <circle cx="62" cy="42" r="0.7"/><circle cx="36" cy="50" r="0.7"/>
    <circle cx="64" cy="50" r="0.7"/><circle cx="38" cy="58" r="0.7"/>
    <circle cx="62" cy="58" r="0.7"/><circle cx="44" cy="62" r="0.7"/>
    <circle cx="56" cy="62" r="0.7"/><circle cx="50" cy="64" r="0.7"/>
    <circle cx="42" cy="48" r="0.7"/><circle cx="58" cy="48" r="0.7"/>
    <circle cx="46" cy="42" r="0.7"/><circle cx="54" cy="42" r="0.7"/>
    <circle cx="46" cy="56" r="0.7"/><circle cx="54" cy="56" r="0.7"/>
    <circle cx="50" cy="46" r="0.7"/><circle cx="50" cy="54" r="0.7"/>
    <circle cx="34" cy="34" r="0.7"/><circle cx="66" cy="34" r="0.7"/>
    <circle cx="34" cy="66" r="0.7"/><circle cx="66" cy="66" r="0.7"/>
    <circle cx="26" cy="42" r="0.7"/><circle cx="74" cy="42" r="0.7"/>
    <circle cx="26" cy="58" r="0.7"/><circle cx="74" cy="58" r="0.7"/>
    <circle cx="42" cy="26" r="0.7"/><circle cx="58" cy="26" r="0.7"/>
    <circle cx="42" cy="74" r="0.7"/><circle cx="58" cy="74" r="0.7"/>
    <circle cx="50" cy="22" r="0.7"/><circle cx="50" cy="78" r="0.7"/>
    <circle cx="22" cy="50" r="0.7"/>
  </g>
</svg>