<svg xmlns="http://www.w3.org/2000/svg" viewBox="0 0 100 100">
  <!-- New England Aster - Front View -->
  <g fill="none" stroke="#2d3a2e" stroke-linecap="round">
    <!-- Main stem -->
    <path d="M50,85 C50,74 49,62 48,44" stroke-width="2.2"/>
    <!-- Branch stems -->
    <path d="M49,60 C42,54 36,48 30,42" stroke-width="1.6"/>
    <path d="M49,55 C56,50 62,44 68,38" stroke-width="1.6"/>
    <path d="M30,42 C26,38 22,34 18,30" stroke-width="1.4"/>
    <path d="M30,42 C34,38 38,34 40,30" stroke-width="1.4"/>
    <path d="M68,38 C72,34 76,30 80,26" stroke-width="1.4"/>
    <path d="M68,38 C64,34 62,30 60,26" stroke-width="1.4"/>
    <!-- Leaves along main stem -->
    <path d="M50,74 C43,70 36,68 28,70" stroke-width="1.8"/>
    <path d="M28,70 C31,67 33,64 31,62" stroke-width="1.1"/>
    <path d="M50,68 C57,64 64,62 72,64" stroke-width="1.8"/>
    <path d="M72,64 C69,61 67,58 69,56" stroke-width="1.1"/>
    <!-- Small leaves on branches -->
    <path d="M36,48 C32,46 28,46 26,48" stroke-width="1.2"/>
    <path d="M62,44 C66,42 70,42 72,44" stroke-width="1.2"/>
    <!-- Main top flower -->
    <circle cx="48" cy="36" r="3.5" stroke-width="1.4"/>
    <path d="M48,32 C48,29 48,26 48,24" stroke-width="1.1"/>
    <path d="M45,33 C43,30 41,28 39,26" stroke-width="1.1"/>
    <path d="M51,33 C53,30 55,28 57,26" stroke-width="1.1"/>
    <path d="M44,35 C41,34 38,33 36,33" stroke-width="1.1"/>
    <path d="M52,35 C55,34 58,33 60,33" stroke-width="1.1"/>
    <path d="M45,39 C43,41 41,43 39,44" stroke-width="1.1"/>
    <path d="M51,39 C53,41 55,43 57,44" stroke-width="1.1"/>
    <path d="M48,40 C48,42 48,44 48,46" stroke-width="1.0"/>
    <path d="M46,33 C45,30 43,27 42,25" stroke-width="1.0"/>
    <path d="M50,33 C51,30 53,27 54,25" stroke-width="1.0"/>
    <!-- Left branch flower -->
    <circle cx="18" cy="24" r="2.8" stroke-width="1.3"/>
    <path d="M18,21 C18,19 18,17 18,15" stroke-width="1.0"/>
    <path d="M15,22 C13,20 11,18 10,17" stroke-width="1.0"/>
    <path d="M21,22 C23,20 25,18 26,17" stroke-width="1.0"/>
    <path d="M15,25 C13,26 11,26 10,26" stroke-width="1.0"/>
    <path d="M21,25 C23,26 25,26 26,26" stroke-width="1.0"/>
    <path d="M16,27 C14,29 13,30 12,31" stroke-width="1.0"/>
    <path d="M20,27 C22,29 23,30 24,31" stroke-width="1.0"/>
    <!-- Left inner branch flower -->
    <circle cx="40" cy="24" r="2.5" stroke-width="1.2"/>
    <path d="M40,21 C40,19 40,17 40,15" stroke-width="1.0"/>
    <path d="M38,22 C36,20 35,18 34,17" stroke-width="1.0"/>
    <path d="M42,22 C44,20 45,18 46,17" stroke-width="1.0"/>
    <path d="M38,26 C36,28 35,29 34,30" stroke-width="1.0"/>
    <path d="M42,26 C44,28 45,29 46,30" stroke-width="1.0"/>
    <!-- Right branch flower -->
    <circle cx="80" cy="20" r="2.8" stroke-width="1.3"/>
    <path d="M80,17 C80,15 80,13 80,11" stroke-width="1.0"/>
    <path d="M77,18 C75,16 73,14 72,13" stroke-width="1.0"/>
    <path d="M83,18 C85,16 87,14 88,13" stroke-width="1.0"/>
    <path d="M77,21 C75,22 73,22 72,22" stroke-width="1.0"/>
    <path d="M83,21 C85,22 87,22 88,22" stroke-width="1.0"/>
    <path d="M78,23 C76,25 75,26 74,27" stroke-width="1.0"/>
    <path d="M82,23 C84,25 85,26 86,27" stroke-width="1.0"/>
    <!-- Right inner branch flower -->
    <circle cx="60" cy="20" r="2.5" stroke-width="1.2"/>
    <path d="M60,17 C60,15 60,13 60,11" stroke-width="1.0"/>
    <path d="M58,18 C56,16 55,14 54,13" stroke-width="1.0"/>
    <path d="M62,18 C64,16 65,14 66,13" stroke-width="1.0"/>
    <path d="M58,22 C56,24 55,25 54,26" stroke-width="1.0"/>
    <path d="M62,22 C64,24 65,25 66,26" stroke-width="1.0"/>
  </g>
  <!-- Stippling for flower centers -->
  <g fill="#2d3a2e" stroke="none">
    <!-- Main flower -->
    <circle cx="47" cy="35" r="0.7"/><circle cx="49" cy="35" r="0.7"/>
    <circle cx="48" cy="37" r="0.7"/><circle cx="46" cy="37" r="0.7"/>
    <circle cx="50" cy="37" r="0.7"/><circle cx="48" cy="35" r="0.7"/>
    <!-- Left branch flower -->
    <circle cx="17" cy="23" r="0.7"/><circle cx="19" cy="23" r="0.7"/>
    <circle cx="18" cy="25" r="0.7"/><circle cx="16" cy="25" r="0.7"/>
    <circle cx="20" cy="25" r="0.7"/>
    <!-- Left inner flower -->
    <circle cx="39" cy="23" r="0.7"/><circle cx="41" cy="23" r="0.7"/>
    <circle cx="40" cy="25" r="0.7"/>
    <!-- Right branch flower -->
    <circle cx="79" cy="19" r="0.7"/><circle cx="81" cy="19" r="0.7"/>
    <circle cx="80" cy="21" r="0.7"/><circle cx="78" cy="21" r="0.7"/>
    <circle cx="82" cy="21" r="0.7"/>
    <!-- Right inner flower -->
    <circle cx="59" cy="19" r="0.7"/><circle cx="61" cy="19" r="0.7"/>
    <circle cx="60" cy="21" r="0.7"/>
  </g>
</svg>