<svg xmlns="http://www.w3.org/2000/svg" viewBox="0 0 100 100">
  <!-- Bee Balm (Monarda) - Top View -->
  <g fill="none" stroke="#2d3a2e" stroke-linecap="round">
    <!-- Square stem cross-section at center (mint family) -->
    <rect x="47" y="47" width="6" height="6" rx="0.5" stroke-width="1.8"/>
    <!-- Tubular flowers radiating outward in spiky crown/starburst -->
    <!-- Layer 1 - inner tubes -->
    <path d="M50,47 C50,40 49,34 48,28" stroke-width="1.6"/>
    <path d="M53,47 C56,41 59,35 62,30" stroke-width="1.5"/>
    <path d="M56,50 C62,50 68,49 74,48" stroke-width="1.6"/>
    <path d="M56,53 C62,56 67,59 72,63" stroke-width="1.5"/>
    <path d="M53,56 C54,62 55,68 55,74" stroke-width="1.6"/>
    <path d="M50,56 C48,62 46,68 44,74" stroke-width="1.5"/>
    <path d="M47,53 C41,56 35,59 29,62" stroke-width="1.6"/>
    <path d="M47,50 C41,49 35,48 28,48" stroke-width="1.5"/>
    <path d="M47,47 C42,42 37,37 33,32" stroke-width="1.6"/>
    <!-- Tubular tips (forked/split ends) -->
    <path d="M48,28 C46,24 44,22 42,21" stroke-width="1.0"/>
    <path d="M48,28 C50,24 51,22 52,21" stroke-width="1.0"/>
    <path d="M62,30 C64,27 66,25 69,24" stroke-width="1.0"/>
    <path d="M62,30 C64,28 67,28 69,29" stroke-width="1.0"/>
    <path d="M74,48 C78,47 80,45 82,44" stroke-width="1.0"/>
    <path d="M74,48 C78,49 80,51 82,52" stroke-width="1.0"/>
    <path d="M72,63 C75,66 77,68 79,70" stroke-width="1.0"/>
    <path d="M72,63 C74,65 74,68 74,71" stroke-width="1.0"/>
    <path d="M55,74 C56,78 58,80 59,83" stroke-width="1.0"/>
    <path d="M55,74 C53,78 52,80 52,83" stroke-width="1.0"/>
    <path d="M44,74 C43,78 41,80 40,83" stroke-width="1.0"/>
    <path d="M44,74 C46,78 47,80 48,82" stroke-width="1.0"/>
    <path d="M29,62 C26,64 24,66 22,69" stroke-width="1.0"/>
    <path d="M29,62 C26,63 24,62 22,60" stroke-width="1.0"/>
    <path d="M28,48 C24,47 22,46 19,44" stroke-width="1.0"/>
    <path d="M28,48 C24,49 22,51 20,53" stroke-width="1.0"/>
    <path d="M33,32 C30,29 28,27 26,24" stroke-width="1.0"/>
    <path d="M33,32 C31,30 28,30 26,31" stroke-width="1.0"/>
    <!-- Opposite leaves at base -->
    <path d="M38,80 C30,84 24,88 20,92" stroke-width="2.0"/>
    <path d="M62,80 C70,84 76,88 80,92" stroke-width="2.0"/>
  </g>
  <!-- Stippling for center shadow -->
  <g fill="#2d3a2e" stroke="none">
    <circle cx="49" cy="49" r="0.7"/><circle cx="51" cy="49" r="0.7"/>
    <circle cx="49" cy="51" r="0.7"/><circle cx="51" cy="51" r="0.7"/>
    <circle cx="50" cy="50" r="0.7"/><circle cx="48" cy="48" r="0.7"/>
    <circle cx="52" cy="48" r="0.7"/><circle cx="48" cy="52" r="0.7"/>
    <circle cx="52" cy="52" r="0.7"/>
  </g>
</svg>