<svg xmlns="http://www.w3.org/2000/svg" viewBox="0 0 100 100">
  <!-- Creeping Phlox - Front View: Very low creeping mat of tiny flowers -->
  <g fill="none" stroke="#2d3a2e" stroke-linecap="round">
    <!-- Ground line -->
    <path d="M5 90 Q50 92 95 90" stroke-width="1.5"/>
    <!-- Low mounding mat outline -->
    <path d="M10 90 Q12 82 20 80 Q30 78 40 79 Q50 77 60 79 Q70 78 80 80 Q88 82 90 90" stroke-width="1.3"/>
    <!-- Tiny flowers along the top of the mat -->
    <circle cx="18" cy="84" r="3" stroke-width="1.1"/>
    <path d="M18 81 L18 82.5 M20.5 83 L19.2 83.5 M20 86.5 L19 85.5 M16 86.5 L17 85.5 M15.5 83 L16.8 83.5" stroke-width="1.0"/>
    <circle cx="30" cy="81" r="3" stroke-width="1.1"/>
    <path d="M30 78 L30 79.5 M32.5 80 L31.2 80.5 M32 83.5 L31 82.5 M28 83.5 L29 82.5 M27.5 80 L28.8 80.5" stroke-width="1.0"/>
    <circle cx="42" cy="80" r="3" stroke-width="1.1"/>
    <path d="M42 77 L42 78.5 M44.5 79 L43.2 79.5 M44 82.5 L43 81.5 M40 82.5 L41 81.5 M39.5 79 L40.8 79.5" stroke-width="1.0"/>
    <circle cx="54" cy="79" r="3" stroke-width="1.1"/>
    <path d="M54 76 L54 77.5 M56.5 78 L55.2 78.5 M56 81.5 L55 80.5 M52 81.5 L53 80.5 M51.5 78 L52.8 78.5" stroke-width="1.0"/>
    <circle cx="66" cy="80" r="3" stroke-width="1.1"/>
    <path d="M66 77 L66 78.5 M68.5 79 L67.2 79.5 M68 82.5 L67 81.5 M64 82.5 L65 81.5 M63.5 79 L64.8 79.5" stroke-width="1.0"/>
    <circle cx="78" cy="82" r="3" stroke-width="1.1"/>
    <path d="M78 79 L78 80.5 M80.5 81 L79.2 81.5 M80 84.5 L79 83.5 M76 84.5 L77 83.5 M75.5 81 L76.8 81.5" stroke-width="1.0"/>
    <!-- Needle foliage texture -->
    <path d="M14 87 L16 85" stroke-width="1.0"/><path d="M24 85 L26 83" stroke-width="1.0"/>
    <path d="M36 84 L38 82" stroke-width="1.0"/><path d="M48 83 L50 81" stroke-width="1.0"/>
    <path d="M60 84 L62 82" stroke-width="1.0"/><path d="M72 85 L74 83" stroke-width="1.0"/>
    <path d="M84 87 L86 85" stroke-width="1.0"/>
  </g>
  <!-- Flower center dots -->
  <g fill="#2d3a2e" stroke="none">
    <circle cx="18" cy="84" r="0.7"/><circle cx="30" cy="81" r="0.7"/><circle cx="42" cy="80" r="0.7"/>
    <circle cx="54" cy="79" r="0.7"/><circle cx="66" cy="80" r="0.7"/><circle cx="78" cy="82" r="0.7"/>
  </g>
</svg>