<svg xmlns="http://www.w3.org/2000/svg" viewBox="0 0 100 100">
  <!-- Radiating branches - star/asterisk pattern -->
  <path d="M50 50 L50 10 L46 18 L50 14 L54 18 Z" fill="#1a4a18"/>
  <path d="M50 50 L50 10 L46 18 L50 14 L54 18 Z" fill="#1a4a18" transform="rotate(45 50 50)"/>
  <path d="M50 50 L50 10 L46 18 L50 14 L54 18 Z" fill="#1e5220" transform="rotate(90 50 50)"/>
  <path d="M50 50 L50 10 L46 18 L50 14 L54 18 Z" fill="#1e5220" transform="rotate(135 50 50)"/>
  <path d="M50 50 L50 10 L46 18 L50 14 L54 18 Z" fill="#1a4a18" transform="rotate(180 50 50)"/>
  <path d="M50 50 L50 10 L46 18 L50 14 L54 18 Z" fill="#1a4a18" transform="rotate(225 50 50)"/>
  <path d="M50 50 L50 10 L46 18 L50 14 L54 18 Z" fill="#1e5220" transform="rotate(270 50 50)"/>
  <path d="M50 50 L50 10 L46 18 L50 14 L54 18 Z" fill="#1e5220" transform="rotate(315 50 50)"/>
  <!-- Secondary shorter branches -->
  <path d="M50 50 L50 22 L47 26 L50 24 L53 26 Z" fill="#2a6228" transform="rotate(22.5 50 50)"/>
  <path d="M50 50 L50 22 L47 26 L50 24 L53 26 Z" fill="#2a6228" transform="rotate(67.5 50 50)"/>
  <path d="M50 50 L50 22 L47 26 L50 24 L53 26 Z" fill="#2a6228" transform="rotate(112.5 50 50)"/>
  <path d="M50 50 L50 22 L47 26 L50 24 L53 26 Z" fill="#2a6228" transform="rotate(157.5 50 50)"/>
  <path d="M50 50 L50 22 L47 26 L50 24 L53 26 Z" fill="#2a6228" transform="rotate(202.5 50 50)"/>
  <path d="M50 50 L50 22 L47 26 L50 24 L53 26 Z" fill="#2a6228" transform="rotate(247.5 50 50)"/>
  <path d="M50 50 L50 22 L47 26 L50 24 L53 26 Z" fill="#2a6228" transform="rotate(292.5 50 50)"/>
  <path d="M50 50 L50 22 L47 26 L50 24 L53 26 Z" fill="#2a6228" transform="rotate(337.5 50 50)"/>
  <!-- Center trunk -->
  <circle cx="50" cy="50" r="5" fill="#1a4a18"/>
  <circle cx="50" cy="50" r="2.5" fill="#3a2a1a"/>
</svg>