<svg xmlns="http://www.w3.org/2000/svg" viewBox="0 0 100 100">
  <circle cx="50" cy="50" r="28" fill="#3a7a32" opacity="0.3"/>
  <ellipse cx="50" cy="32" rx="8" ry="14" fill="#e8b020"/>
  <ellipse cx="50" cy="32" rx="8" ry="14" fill="#e8b020" transform="rotate(45 50 50)"/>
  <ellipse cx="50" cy="32" rx="8" ry="14" fill="#f0c030" transform="rotate(90 50 50)"/>
  <ellipse cx="50" cy="32" rx="8" ry="14" fill="#f0c030" transform="rotate(135 50 50)"/>
  <ellipse cx="50" cy="32" rx="8" ry="14" fill="#e8b020" transform="rotate(180 50 50)"/>
  <ellipse cx="50" cy="32" rx="8" ry="14" fill="#e8b020" transform="rotate(225 50 50)"/>
  <ellipse cx="50" cy="32" rx="8" ry="14" fill="#f0c030" transform="rotate(270 50 50)"/>
  <ellipse cx="50" cy="32" rx="8" ry="14" fill="#f0c030" transform="rotate(315 50 50)"/>
  <circle cx="50" cy="50" r="9" fill="#4a2a10"/>
  <circle cx="50" cy="50" r="5" fill="#6a3a18"/>
</svg>