<svg xmlns="http://www.w3.org/2000/svg" viewBox="0 0 100 100">
  <circle cx="50" cy="50" r="30" fill="#3a8a32" opacity="0.4"/>
  <ellipse cx="42" cy="36" rx="12" ry="8" fill="#4a9a3e" transform="rotate(-30 42 36)"/>
  <ellipse cx="62" cy="38" rx="12" ry="8" fill="#3a8a32" transform="rotate(20 62 38)"/>
  <ellipse cx="38" cy="62" rx="11" ry="7" fill="#4a9a3e" transform="rotate(-10 38 62)"/>
  <ellipse cx="60" cy="64" rx="11" ry="7" fill="#3a8a32" transform="rotate(15 60 64)"/>
  <ellipse cx="50" cy="34" rx="9" ry="12" fill="#f0f0f0"/>
  <ellipse cx="50" cy="34" rx="9" ry="12" fill="#e8e8e8" transform="rotate(72 50 50)"/>
  <ellipse cx="50" cy="34" rx="9" ry="12" fill="#f0f0f0" transform="rotate(144 50 50)"/>
  <ellipse cx="50" cy="34" rx="9" ry="12" fill="#e8e8e8" transform="rotate(216 50 50)"/>
  <ellipse cx="50" cy="34" rx="9" ry="12" fill="#f0f0f0" transform="rotate(288 50 50)"/>
  <circle cx="50" cy="50" r="6" fill="#e8d840"/>
  <circle cx="50" cy="50" r="3" fill="#d0c030"/>
</svg>