<svg xmlns="http://www.w3.org/2000/svg" viewBox="0 0 100 100">
  <!-- Blazing Star front-view: tall narrow spike of fluffy flowers, grass-like basal leaves -->
  <g fill="none" stroke="#2d3a2e" stroke-linecap="round">
    <!-- Main stem -->
    <path d="M50,85 C50,72 50,50 50,12" stroke-width="2.0"/>
    <!-- Fluffy flower tufts along spike - opening from top down -->
    <!-- Top flowers (most open) -->
    <path d="M50,12 C44,8 38,6 34,8" stroke-width="1.1"/>
    <path d="M50,12 C56,8 62,6 66,8" stroke-width="1.1"/>
    <path d="M50,12 C46,6 44,2 42,4" stroke-width="1.0"/>
    <path d="M50,12 C54,6 56,2 58,4" stroke-width="1.0"/>
    <path d="M50,16 C42,12 36,10 32,12" stroke-width="1.2"/>
    <path d="M50,16 C58,12 64,10 68,12" stroke-width="1.2"/>
    <path d="M50,20 C42,16 34,14 30,16" stroke-width="1.2"/>
    <path d="M50,20 C58,16 66,14 70,16" stroke-width="1.2"/>
    <!-- Mid flowers -->
    <path d="M50,24 C44,20 36,18 32,20" stroke-width="1.3"/>
    <path d="M50,24 C56,20 64,18 68,20" stroke-width="1.3"/>
    <path d="M50,28 C44,24 38,22 34,24" stroke-width="1.3"/>
    <path d="M50,28 C56,24 62,22 66,24" stroke-width="1.3"/>
    <path d="M50,32 C46,28 40,26 36,28" stroke-width="1.4"/>
    <path d="M50,32 C54,28 60,26 64,28" stroke-width="1.4"/>
    <!-- Lower flowers (less open, tighter buds) -->
    <path d="M50,36 C46,34 42,32 40,34" stroke-width="1.4"/>
    <path d="M50,36 C54,34 58,32 60,34" stroke-width="1.4"/>
    <path d="M50,40 C46,38 44,36 42,38" stroke-width="1.5"/>
    <path d="M50,40 C54,38 56,36 58,38" stroke-width="1.5"/>
    <path d="M50,44 C48,42 46,40 44,42" stroke-width="1.5"/>
    <path d="M50,44 C52,42 54,40 56,42" stroke-width="1.5"/>
    <!-- Grass-like basal leaves -->
    <path d="M50,85 C46,78 38,66 30,58" stroke-width="2.2"/>
    <path d="M50,85 C54,78 62,66 70,58" stroke-width="2.2"/>
    <path d="M50,85 C44,76 34,68 24,64" stroke-width="1.8"/>
    <path d="M50,85 C56,76 66,68 76,64" stroke-width="1.8"/>
    <path d="M50,85 C48,78 42,72 36,68" stroke-width="1.6"/>
    <path d="M50,85 C52,78 58,72 64,68" stroke-width="1.6"/>
  </g>
  <!-- Stippling for fluffy flower texture -->
  <g fill="#2d3a2e" stroke="none">
    <circle cx="44" cy="4" r="0.7"/><circle cx="56" cy="4" r="0.7"/>
    <circle cx="38" cy="8" r="0.7"/><circle cx="62" cy="8" r="0.7"/>
    <circle cx="36" cy="12" r="0.7"/><circle cx="64" cy="12" r="0.7"/>
    <circle cx="34" cy="16" r="0.7"/><circle cx="66" cy="16" r="0.7"/>
    <circle cx="34" cy="20" r="0.7"/><circle cx="66" cy="20" r="0.7"/>
    <circle cx="36" cy="24" r="0.7"/><circle cx="64" cy="24" r="0.7"/>
    <circle cx="38" cy="28" r="0.7"/><circle cx="62" cy="28" r="0.7"/>
    <circle cx="40" cy="32" r="0.7"/><circle cx="60" cy="32" r="0.7"/>
    <circle cx="44" cy="10" r="0.7"/><circle cx="56" cy="10" r="0.7"/>
    <circle cx="42" cy="14" r="0.7"/><circle cx="58" cy="14" r="0.7"/>
    <circle cx="40" cy="18" r="0.7"/><circle cx="60" cy="18" r="0.7"/>
    <circle cx="42" cy="22" r="0.7"/><circle cx="58" cy="22" r="0.7"/>
    <circle cx="44" cy="26" r="0.7"/><circle cx="56" cy="26" r="0.7"/>
    <circle cx="46" cy="30" r="0.7"/><circle cx="54" cy="30" r="0.7"/>
    <!-- Leaf shadow stipples -->
    <circle cx="32" cy="62" r="0.7"/><circle cx="68" cy="62" r="0.7"/>
    <circle cx="36" cy="66" r="0.7"/><circle cx="64" cy="66" r="0.7"/>
    <circle cx="28" cy="66" r="0.7"/><circle cx="72" cy="66" r="0.7"/>
  </g>
</svg>