<svg xmlns="http://www.w3.org/2000/svg" viewBox="0 0 100 100">
  <!-- Prairie Dropseed - Top View: Fine hair-like blades in delicate fountain -->
  <g fill="none" stroke="#2d3a2e" stroke-linecap="round">
    <!-- Fine radiating hair-like blades -->
    <path d="M50 50 Q48 30 46 10" stroke-width="1.0"/>
    <path d="M50 50 Q52 28 54 8" stroke-width="1.0"/>
    <path d="M50 50 Q40 32 32 12" stroke-width="1.0"/>
    <path d="M50 50 Q60 30 68 10" stroke-width="1.0"/>
    <path d="M50 50 Q34 38 18 22" stroke-width="1.0"/>
    <path d="M50 50 Q66 36 82 20" stroke-width="1.0"/>
    <path d="M50 50 Q30 45 10 38" stroke-width="1.0"/>
    <path d="M50 50 Q70 43 90 36" stroke-width="1.0"/>
    <path d="M50 50 Q28 52 8 52" stroke-width="1.0"/>
    <path d="M50 50 Q72 50 92 48" stroke-width="1.0"/>
    <path d="M50 50 Q32 60 12 66" stroke-width="1.0"/>
    <path d="M50 50 Q68 58 88 64" stroke-width="1.0"/>
    <path d="M50 50 Q38 66 22 80" stroke-width="1.0"/>
    <path d="M50 50 Q62 64 78 78" stroke-width="1.0"/>
    <path d="M50 50 Q44 68 36 86" stroke-width="1.0"/>
    <path d="M50 50 Q56 66 64 84" stroke-width="1.0"/>
    <path d="M50 50 Q50 70 50 90" stroke-width="1.0"/>
    <!-- Extra fine wisps -->
    <path d="M50 50 Q25 30 14 16" stroke-width="1.0"/>
    <path d="M50 50 Q75 28 86 14" stroke-width="1.0"/>
    <path d="M50 50 Q22 62 8 72" stroke-width="1.0"/>
    <path d="M50 50 Q78 60 92 70" stroke-width="1.0"/>
  </g>
  <!-- Tiny central stipple -->
  <g fill="#2d3a2e" stroke="none">
    <circle cx="50" cy="50" r="0.7"/><circle cx="49" cy="49" r="0.7"/><circle cx="51" cy="49" r="0.7"/>
    <circle cx="49" cy="51" r="0.7"/><circle cx="51" cy="51" r="0.7"/><circle cx="48" cy="50" r="0.7"/>
    <circle cx="52" cy="50" r="0.7"/>
  </g>
</svg>