<svg xmlns="http://www.w3.org/2000/svg" viewBox="0 0 100 100">
  <!-- Prairie Dropseed - Front View: Fine mounding grass with drooping seed heads -->
  <g fill="none" stroke="#2d3a2e" stroke-linecap="round">
    <!-- Ground line -->
    <path d="M15 88 Q50 90 85 88" stroke-width="1.5"/>
    <!-- Fine mounding blades -->
    <path d="M50 88 Q49 60 48 35" stroke-width="1.2"/>
    <path d="M50 88 Q51 62 53 37" stroke-width="1.2"/>
    <path d="M48 88 Q44 62 38 38" stroke-width="1.1"/>
    <path d="M52 88 Q56 60 62 36" stroke-width="1.1"/>
    <path d="M45 88 Q38 65 28 42" stroke-width="1.0"/>
    <path d="M55 88 Q62 63 72 40" stroke-width="1.0"/>
    <path d="M42 88 Q34 68 22 50" stroke-width="1.0"/>
    <path d="M58 88 Q66 66 78 48" stroke-width="1.0"/>
    <path d="M40 88 Q30 70 18 56" stroke-width="1.0"/>
    <path d="M60 88 Q70 68 82 54" stroke-width="1.0"/>
    <!-- Delicate drooping seed heads -->
    <path d="M48 35 Q44 28 38 24" stroke-width="1.0"/>
    <path d="M48 35 Q46 26 42 20" stroke-width="1.0"/>
    <path d="M53 37 Q56 28 62 22" stroke-width="1.0"/>
    <path d="M53 37 Q58 30 64 26" stroke-width="1.0"/>
    <path d="M38 38 Q32 30 26 28" stroke-width="1.0"/>
    <path d="M62 36 Q68 28 74 26" stroke-width="1.0"/>
  </g>
  <!-- Stippling for seed head texture -->
  <g fill="#2d3a2e" stroke="none">
    <circle cx="38" cy="24" r="0.7"/><circle cx="42" cy="20" r="0.7"/><circle cx="62" cy="22" r="0.7"/>
    <circle cx="64" cy="26" r="0.7"/><circle cx="26" cy="28" r="0.7"/><circle cx="74" cy="26" r="0.7"/>
    <circle cx="36" cy="22" r="0.7"/><circle cx="60" cy="20" r="0.7"/><circle cx="40" cy="18" r="0.7"/>
    <circle cx="50" cy="86" r="0.7"/><circle cx="48" cy="85" r="0.7"/><circle cx="52" cy="85" r="0.7"/>
  </g>
</svg>