<svg xmlns="http://www.w3.org/2000/svg" viewBox="0 0 100 100">
  <!-- Redbud front-view: vase/umbrella shape with heart-shaped leaves -->
  <!-- Trunk - short, splitting early -->
  <path d="M48,95 L48,70 C47,64 45,58 42,52" fill="none" stroke="#2d3a2e" stroke-width="2.2" stroke-linecap="round"/>
  <path d="M52,95 L52,70 C53,64 55,58 58,52" fill="none" stroke="#2d3a2e" stroke-width="2.2" stroke-linecap="round"/>
  <!-- Vase-shaped main branches spreading upward and outward -->
  <path d="M42,52 C36,44 28,36 20,30" fill="none" stroke="#2d3a2e" stroke-width="1.8" stroke-linecap="round"/>
  <path d="M42,52 C38,44 34,36 30,28" fill="none" stroke="#2d3a2e" stroke-width="1.5" stroke-linecap="round"/>
  <path d="M58,52 C64,44 72,36 80,30" fill="none" stroke="#2d3a2e" stroke-width="1.8" stroke-linecap="round"/>
  <path d="M58,52 C62,44 66,36 70,28" fill="none" stroke="#2d3a2e" stroke-width="1.5" stroke-linecap="round"/>
  <path d="M48,60 C48,50 48,40 48,30 C48,24 46,18 44,14" fill="none" stroke="#2d3a2e" stroke-width="1.3" stroke-linecap="round"/>
  <path d="M52,60 C52,50 52,40 52,30 C52,24 54,18 56,14" fill="none" stroke="#2d3a2e" stroke-width="1.3" stroke-linecap="round"/>
  <!-- Umbrella-like outer branch tips -->
  <path d="M20,30 C16,26 12,24 10,22" fill="none" stroke="#2d3a2e" stroke-width="1.0" stroke-linecap="round"/>
  <path d="M20,30 C18,28 14,28 12,30" fill="none" stroke="#2d3a2e" stroke-width="1.0" stroke-linecap="round"/>
  <path d="M80,30 C84,26 88,24 90,22" fill="none" stroke="#2d3a2e" stroke-width="1.0" stroke-linecap="round"/>
  <path d="M80,30 C82,28 86,28 88,30" fill="none" stroke="#2d3a2e" stroke-width="1.0" stroke-linecap="round"/>
  <path d="M30,28 C26,22 22,18 20,16" fill="none" stroke="#2d3a2e" stroke-width="1.0" stroke-linecap="round"/>
  <path d="M70,28 C74,22 78,18 80,16" fill="none" stroke="#2d3a2e" stroke-width="1.0" stroke-linecap="round"/>
  <!-- Heart-shaped leaves along branches -->
  <g fill="none" stroke="#2d3a2e" stroke-width="0.8" stroke-linecap="round">
    <path d="M10,22 C9,19 6,19 6,22 C6,25 10,27 10,27 C10,27 14,25 14,22 C14,19 11,19 10,22Z"/>
    <path d="M90,22 C89,19 86,19 86,22 C86,25 90,27 90,27 C90,27 94,25 94,22 C94,19 91,19 90,22Z"/>
    <path d="M20,16 C19,13 16,13 16,16 C16,19 20,21 20,21 C20,21 24,19 24,16 C24,13 21,13 20,16Z"/>
    <path d="M80,16 C79,13 76,13 76,16 C76,19 80,21 80,21 C80,21 84,19 84,16 C84,13 81,13 80,16Z"/>
    <path d="M44,14 C43,11 40,11 40,14 C40,17 44,19 44,19 C44,19 48,17 48,14 C48,11 45,11 44,14Z"/>
    <path d="M56,14 C55,11 52,11 52,14 C52,17 56,19 56,19 C56,19 60,17 60,14 C60,11 57,11 56,14Z"/>
    <path d="M12,30 C11,27 8,27 8,30 C8,33 12,35 12,35 C12,35 16,33 16,30 C16,27 13,27 12,30Z"/>
    <path d="M88,30 C87,27 84,27 84,30 C84,33 88,35 88,35 C88,35 92,33 92,30 C92,27 89,27 88,30Z"/>
  </g>
  <!-- Umbrella/vase canopy outline -->
  <path d="M6,34 C4,28 6,22 12,16 C18,12 26,10 34,10 C40,8 46,8 50,8 C54,8 60,8 66,10 C74,10 82,12 88,16 C94,22 96,28 94,34 C92,40 86,44 78,48 C70,52 62,56 56,58 C52,60 48,60 44,58 C38,56 30,52 22,48 C14,44 8,40 6,34Z" fill="none" stroke="#2d3a2e" stroke-width="1.5" stroke-linecap="round"/>
  <!-- Stippling -->
  <circle cx="16" cy="22" r="0.7" fill="#2d3a2e" stroke="none"/>
  <circle cx="84" cy="22" r="0.7" fill="#2d3a2e" stroke="none"/>
  <circle cx="30" cy="14" r="0.7" fill="#2d3a2e" stroke="none"/>
  <circle cx="70" cy="14" r="0.7" fill="#2d3a2e" stroke="none"/>
  <circle cx="50" cy="10" r="0.7" fill="#2d3a2e" stroke="none"/>
  <circle cx="24" cy="38" r="0.7" fill="#2d3a2e" stroke="none"/>
  <circle cx="76" cy="38" r="0.7" fill="#2d3a2e" stroke="none"/>
  <circle cx="40" cy="46" r="0.7" fill="#2d3a2e" stroke="none"/>
  <circle cx="60" cy="46" r="0.7" fill="#2d3a2e" stroke="none"/>
  <circle cx="50" cy="24" r="0.7" fill="#2d3a2e" stroke="none"/>
  <circle cx="36" cy="26" r="0.7" fill="#2d3a2e" stroke="none"/>
  <circle cx="64" cy="26" r="0.7" fill="#2d3a2e" stroke="none"/>
</svg>