<svg xmlns="http://www.w3.org/2000/svg" viewBox="0 0 100 100">
  <!-- Rudbeckia (Black-eyed Susan) - Top View -->
  <g fill="none" stroke="#2d3a2e" stroke-linecap="round">
    <!-- Narrow upright petals radiating from center - 14 petals -->
    <path d="M50,50 C49,42 48,34 47,22" stroke-width="1.5"/>
    <path d="M50,50 C53,42 56,34 59,23" stroke-width="1.4"/>
    <path d="M50,50 C57,44 64,38 72,30" stroke-width="1.5"/>
    <path d="M50,50 C60,47 70,44 80,42" stroke-width="1.4"/>
    <path d="M50,50 C60,52 70,54 80,55" stroke-width="1.5"/>
    <path d="M50,50 C58,57 66,64 73,72" stroke-width="1.4"/>
    <path d="M50,50 C54,59 58,68 60,78" stroke-width="1.5"/>
    <path d="M50,50 C50,59 50,68 50,78" stroke-width="1.4"/>
    <path d="M50,50 C46,59 42,68 40,78" stroke-width="1.5"/>
    <path d="M50,50 C42,57 34,64 27,72" stroke-width="1.4"/>
    <path d="M50,50 C40,52 30,54 20,55" stroke-width="1.5"/>
    <path d="M50,50 C40,47 30,44 20,42" stroke-width="1.4"/>
    <path d="M50,50 C43,44 36,38 28,30" stroke-width="1.5"/>
    <path d="M50,50 C47,42 44,34 41,23" stroke-width="1.4"/>
    <!-- Petal edges (narrow pointed tips) -->
    <path d="M47,22 C46,19 47,17 49,18" stroke-width="1.0"/>
    <path d="M59,23 C60,20 62,18 63,20" stroke-width="1.0"/>
    <path d="M72,30 C74,28 76,27 77,29" stroke-width="1.0"/>
    <path d="M80,42 C83,41 85,42 84,44" stroke-width="1.0"/>
    <path d="M80,55 C83,55 85,57 83,58" stroke-width="1.0"/>
    <path d="M73,72 C75,74 75,76 73,76" stroke-width="1.0"/>
    <path d="M60,78 C61,81 60,83 58,82" stroke-width="1.0"/>
    <path d="M50,78 C50,81 49,83 47,82" stroke-width="1.0"/>
    <path d="M40,78 C39,81 37,82 36,80" stroke-width="1.0"/>
    <path d="M27,72 C25,74 23,74 23,72" stroke-width="1.0"/>
    <path d="M20,55 C17,56 15,55 16,53" stroke-width="1.0"/>
    <path d="M20,42 C17,41 16,39 18,38" stroke-width="1.0"/>
    <path d="M28,30 C26,28 25,26 27,25" stroke-width="1.0"/>
    <path d="M41,23 C40,20 38,19 39,17" stroke-width="1.0"/>
    <!-- Small dark center -->
    <circle cx="50" cy="50" r="7" stroke-width="1.8"/>
    <circle cx="50" cy="50" r="4" stroke-width="1.2"/>
  </g>
  <!-- Dense stippling for dark center -->
  <g fill="#2d3a2e" stroke="none">
    <circle cx="48" cy="48" r="0.7"/><circle cx="52" cy="48" r="0.7"/>
    <circle cx="50" cy="46" r="0.7"/><circle cx="50" cy="50" r="0.7"/>
    <circle cx="46" cy="50" r="0.7"/><circle cx="54" cy="50" r="0.7"/>
    <circle cx="48" cy="52" r="0.7"/><circle cx="52" cy="52" r="0.7"/>
    <circle cx="50" cy="54" r="0.7"/><circle cx="47" cy="49" r="0.7"/>
    <circle cx="53" cy="49" r="0.7"/><circle cx="49" cy="47" r="0.7"/>
    <circle cx="51" cy="47" r="0.7"/><circle cx="49" cy="53" r="0.7"/>
    <circle cx="51" cy="53" r="0.7"/><circle cx="47" cy="51" r="0.7"/>
    <circle cx="53" cy="51" r="0.7"/><circle cx="50" cy="48" r="0.7"/>
    <circle cx="48" cy="50" r="0.7"/><circle cx="52" cy="50" r="0.7"/>
  </g>
</svg>