<svg xmlns="http://www.w3.org/2000/svg" viewBox="0 0 100 100">
  <!-- Oak front-view: broad spreading crown, thick trunk -->
  <!-- Trunk -->
  <path d="M47,95 L47,60 C46,55 44,50 44,45" fill="none" stroke="#2d3a2e" stroke-width="2.5" stroke-linecap="round"/>
  <path d="M53,95 L53,60 C54,55 56,50 56,45" fill="none" stroke="#2d3a2e" stroke-width="2.5" stroke-linecap="round"/>
  <!-- Major branch architecture -->
  <path d="M44,55 C38,48 28,42 20,38" fill="none" stroke="#2d3a2e" stroke-width="2" stroke-linecap="round"/>
  <path d="M56,55 C62,48 72,42 80,38" fill="none" stroke="#2d3a2e" stroke-width="2" stroke-linecap="round"/>
  <path d="M46,48 C42,42 35,35 30,28" fill="none" stroke="#2d3a2e" stroke-width="1.8" stroke-linecap="round"/>
  <path d="M54,48 C58,42 65,35 70,28" fill="none" stroke="#2d3a2e" stroke-width="1.8" stroke-linecap="round"/>
  <path d="M50,45 C50,38 50,30 50,20" fill="none" stroke="#2d3a2e" stroke-width="1.5" stroke-linecap="round"/>
  <!-- Secondary branches -->
  <path d="M24,35 C20,30 16,26 14,22" fill="none" stroke="#2d3a2e" stroke-width="1.2" stroke-linecap="round"/>
  <path d="M76,35 C80,30 84,26 86,22" fill="none" stroke="#2d3a2e" stroke-width="1.2" stroke-linecap="round"/>
  <path d="M34,32 C30,26 26,20 24,16" fill="none" stroke="#2d3a2e" stroke-width="1.0" stroke-linecap="round"/>
  <path d="M66,32 C70,26 74,20 76,16" fill="none" stroke="#2d3a2e" stroke-width="1.0" stroke-linecap="round"/>
  <path d="M50,30 C44,24 38,18 36,14" fill="none" stroke="#2d3a2e" stroke-width="1.0" stroke-linecap="round"/>
  <path d="M50,30 C56,24 62,18 64,14" fill="none" stroke="#2d3a2e" stroke-width="1.0" stroke-linecap="round"/>
  <!-- Wide crown silhouette -->
  <path d="M8,40 C6,32 10,22 18,14 C26,8 36,6 50,6 C64,6 74,8 82,14 C90,22 94,32 92,40 C94,46 90,52 82,55 C74,60 64,62 50,62 C36,62 26,60 18,55 C10,52 6,46 8,40Z" fill="none" stroke="#2d3a2e" stroke-width="1.5" stroke-linecap="round"/>
  <!-- Stippling -->
  <circle cx="20" cy="20" r="0.7" fill="#2d3a2e" stroke="none"/>
  <circle cx="15" cy="32" r="0.7" fill="#2d3a2e" stroke="none"/>
  <circle cx="25" cy="42" r="0.7" fill="#2d3a2e" stroke="none"/>
  <circle cx="30" cy="18" r="0.7" fill="#2d3a2e" stroke="none"/>
  <circle cx="40" cy="12" r="0.7" fill="#2d3a2e" stroke="none"/>
  <circle cx="55" cy="10" r="0.7" fill="#2d3a2e" stroke="none"/>
  <circle cx="70" cy="14" r="0.7" fill="#2d3a2e" stroke="none"/>
  <circle cx="80" cy="24" r="0.7" fill="#2d3a2e" stroke="none"/>
  <circle cx="85" cy="38" r="0.7" fill="#2d3a2e" stroke="none"/>
  <circle cx="75" cy="50" r="0.7" fill="#2d3a2e" stroke="none"/>
  <circle cx="60" cy="55" r="0.7" fill="#2d3a2e" stroke="none"/>
  <circle cx="40" cy="55" r="0.7" fill="#2d3a2e" stroke="none"/>
  <circle cx="35" cy="48" r="0.7" fill="#2d3a2e" stroke="none"/>
  <circle cx="62" cy="36" r="0.7" fill="#2d3a2e" stroke="none"/>
  <circle cx="38" cy="28" r="0.7" fill="#2d3a2e" stroke="none"/>
</svg>