<svg xmlns="http://www.w3.org/2000/svg" viewBox="0 0 100 100">
  <!-- Water Feature - Top View: Organic shape with water fill and ripple circles -->
  <!-- Organic pond shape -->
  <path d="M50 15 Q72 12 82 28 Q92 44 85 58 Q80 72 68 80 Q54 90 38 85 Q22 80 15 65 Q10 50 18 35 Q26 18 50 15Z" fill="#a8c8e8" stroke="#4a4a4a" stroke-width="1.5"/>
  <!-- Stone edge detail -->
  <path d="M50 15 Q72 12 82 28 Q92 44 85 58 Q80 72 68 80 Q54 90 38 85 Q22 80 15 65 Q10 50 18 35 Q26 18 50 15Z" fill="none" stroke="#4a4a4a" stroke-width="2.5"/>
  <!-- Concentric ripple circles -->
  <circle cx="50" cy="50" r="8" fill="none" stroke="#4a4a4a" stroke-width="0.6" opacity="0.4"/>
  <circle cx="50" cy="50" r="15" fill="none" stroke="#4a4a4a" stroke-width="0.6" opacity="0.35"/>
  <circle cx="50" cy="50" r="22" fill="none" stroke="#4a4a4a" stroke-width="0.6" opacity="0.3"/>
  <circle cx="50" cy="50" r="29" fill="none" stroke="#4a4a4a" stroke-width="0.5" opacity="0.25"/>
  <!-- Center focal point -->
  <circle cx="50" cy="50" r="2" fill="#4a4a4a" opacity="0.3"/>
</svg>