<svg xmlns="http://www.w3.org/2000/svg" viewBox="0 0 100 100">
  <!-- Wild Ginger - Top View: Heart/kidney-shaped leaves overlapping in a mat -->
  <g fill="none" stroke="#2d3a2e" stroke-linecap="round">
    <!-- Leaf 1 - center top -->
    <path d="M50 22 Q42 28 38 36 Q36 42 40 46 Q44 50 50 48 Q56 50 60 46 Q64 42 62 36 Q58 28 50 22Z" stroke-width="1.5"/>
    <path d="M50 22 L50 48" stroke-width="1.0"/>
    <!-- Leaf 2 - right -->
    <path d="M68 34 Q62 38 58 46 Q56 52 60 56 Q64 60 68 56 Q74 58 78 54 Q80 48 76 42 Q72 36 68 34Z" stroke-width="1.5"/>
    <path d="M68 34 L66 56" stroke-width="1.0"/>
    <!-- Leaf 3 - left -->
    <path d="M32 36 Q28 40 24 48 Q22 54 26 58 Q30 60 36 58 Q40 56 42 50 Q42 44 38 40 Q36 38 32 36Z" stroke-width="1.5"/>
    <path d="M32 36 L34 58" stroke-width="1.0"/>
    <!-- Leaf 4 - bottom center -->
    <path d="M50 58 Q44 62 40 68 Q38 74 42 78 Q46 82 50 80 Q54 82 58 78 Q62 74 60 68 Q56 62 50 58Z" stroke-width="1.5"/>
    <path d="M50 58 L50 80" stroke-width="1.0"/>
    <!-- Leaf 5 - bottom left -->
    <path d="M28 56 Q24 60 20 66 Q18 72 22 76 Q26 78 32 76 Q36 72 36 66 Q34 60 28 56Z" stroke-width="1.5"/>
    <path d="M28 56 L28 76" stroke-width="1.0"/>
    <!-- Leaf 6 - bottom right -->
    <path d="M72 54 Q68 58 66 64 Q64 70 68 74 Q72 78 76 74 Q80 70 78 64 Q76 58 72 54Z" stroke-width="1.5"/>
    <path d="M72 54 L72 74" stroke-width="1.0"/>
  </g>
  <!-- Stippling for leaf texture -->
  <g fill="#2d3a2e" stroke="none">
    <circle cx="46" cy="35" r="0.7"/><circle cx="54" cy="35" r="0.7"/><circle cx="50" cy="38" r="0.7"/>
    <circle cx="66" cy="48" r="0.7"/><circle cx="70" cy="50" r="0.7"/><circle cx="30" cy="50" r="0.7"/>
    <circle cx="34" cy="48" r="0.7"/><circle cx="48" cy="70" r="0.7"/><circle cx="52" cy="70" r="0.7"/>
    <circle cx="26" cy="68" r="0.7"/><circle cx="74" cy="66" r="0.7"/>
  </g>
</svg>